<svg width="179" height="70" viewBox="0 0 179 56" fill="none" xmlns="http://www.w3.org/2000/svg">
<path d="M24.8057 30.4561C16.4915 20.291 8.22292 10.1782 0 0.117895L0.127158 0L21.8615 20.6316L23.1331 19.0989C24.8448 17.0161 26.5468 14.9333 28.2683 12.8702C28.4787 12.6128 28.7802 12.4472 29.1095 12.4084C32.4156 12.4084 35.7218 12.4084 39.0279 12.4084C39.1746 12.4084 39.3115 12.4084 39.5756 12.4772L24.8057 30.4561Z" fill="#E25E3E"/>
<path d="M21.1692 35.0148C20.191 36.1741 19.3009 37.2646 18.401 38.365C17.1686 39.8583 15.9459 41.3615 14.6743 42.845C14.4894 43.0661 14.2266 43.2069 13.9407 43.238C10.5466 43.238 7.15244 43.238 3.75829 43.238C3.66036 43.2418 3.5623 43.2386 3.46484 43.2281L18.225 25.2197C26.5196 35.3718 34.7915 45.478 43.0404 55.5383L42.9328 55.6562L21.1692 35.0148Z" fill="#071952"/>
<path d="M50.7583 21.2515C51.715 21.2515 52.5659 21.446 53.3113 21.835C54.0625 22.2182 54.667 22.7428 55.1248 23.4089C55.5884 24.075 55.8613 24.8266 55.9435 25.6637H53.2497C53.1675 25.2216 53.0178 24.8296 52.8007 24.4877C52.5835 24.1399 52.2989 23.8687 51.9468 23.6742C51.5946 23.4738 51.1721 23.3736 50.6791 23.3736C50.0864 23.3736 49.5758 23.518 49.1473 23.8068C48.7189 24.0957 48.3903 24.5614 48.1614 25.2039C47.9325 25.8464 47.818 26.6953 47.818 27.7504C47.818 29.342 48.0704 30.4944 48.5751 31.2077C49.0857 31.915 49.787 32.2687 50.6791 32.2687C51.1721 32.2687 51.5946 32.1567 51.9468 31.9327C52.2989 31.7028 52.5835 31.4022 52.8007 31.0308C53.0178 30.6536 53.1675 30.2409 53.2497 29.7929H55.9435C55.8672 30.4001 55.7205 30.9807 55.5033 31.5348C55.2862 32.083 54.978 32.5723 54.579 33.0026C54.1799 33.4329 53.6664 33.7719 53.0384 34.0195C52.4104 34.267 51.6504 34.3908 50.7583 34.3908C49.5728 34.3908 48.5487 34.1138 47.686 33.5597C46.8233 33.0056 46.1572 32.2275 45.6876 31.2254C45.224 30.2233 44.9922 29.0531 44.9922 27.715C44.9922 26.371 45.224 25.2186 45.6876 24.2578C46.1513 23.291 46.8145 22.5483 47.6772 22.0296C48.5399 21.5108 49.567 21.2515 50.7583 21.2515ZM68.0881 34.214H65.4207L63.3519 29.2889H60.7726V34.214H58.2108V21.4283H63.5808C64.5961 21.4283 65.4266 21.5904 66.0721 21.9146C66.7177 22.2388 67.1931 22.6898 67.4983 23.2675C67.8034 23.8393 67.956 24.4995 67.956 25.2481C67.956 25.9201 67.8504 26.4889 67.6391 26.9546C67.4337 27.4144 67.1608 27.7976 66.8204 28.1041C66.4859 28.4106 66.1191 28.6611 65.72 28.8557L68.0881 34.214ZM63.123 27.2995C63.8097 27.2995 64.3526 27.1138 64.7516 26.7424C65.1566 26.371 65.3591 25.8936 65.3591 25.31C65.3591 24.7205 65.1654 24.2548 64.778 23.9129C64.3907 23.571 63.9006 23.4001 63.3079 23.4001H60.7726V27.2995H63.123ZM75.4857 34.3908C74.2826 34.3908 73.2408 34.1285 72.3605 33.6039C71.486 33.0734 70.8082 32.3218 70.3269 31.3491C69.8516 30.3706 69.6139 29.2035 69.6139 27.8477C69.6139 26.486 69.8545 25.3129 70.3358 24.3285C70.8229 23.3441 71.5066 22.5866 72.3869 22.0561C73.2672 21.5197 74.3002 21.2515 75.4857 21.2515C76.6653 21.2515 77.6924 21.5167 78.5668 22.0473C79.4413 22.5778 80.1162 23.3353 80.5916 24.3197C81.0728 25.3041 81.3134 26.4801 81.3134 27.8477C81.3134 29.1976 81.0757 30.3618 80.6004 31.3403C80.1309 32.3188 79.4589 33.0734 78.5844 33.6039C77.71 34.1285 76.677 34.3908 75.4857 34.3908ZM75.4857 32.2687C76.1078 32.2687 76.6448 32.1214 77.0967 31.8266C77.5544 31.526 77.9066 31.0544 78.1531 30.4119C78.3996 29.7635 78.5228 28.9205 78.5228 27.883C78.5228 26.8161 78.3966 25.9525 78.1443 25.2923C77.8978 24.6321 77.5456 24.1487 77.0879 23.8422C76.636 23.5298 76.1019 23.3736 75.4857 23.3736C74.8694 23.3736 74.3324 23.5298 73.8747 23.8422C73.4169 24.1487 73.0618 24.635 72.8095 25.3011C72.5571 25.9614 72.4309 26.822 72.4309 27.883C72.4309 28.9264 72.5571 29.7694 72.8095 30.4119C73.0618 31.0544 73.4169 31.526 73.8747 31.8266C74.3324 32.1214 74.8694 32.2687 75.4857 32.2687ZM88.4379 34.3908C87.81 34.3908 87.1937 34.3113 86.5892 34.1521C85.9848 33.9929 85.4331 33.7542 84.9342 33.4359C84.4354 33.1176 84.0216 32.7197 83.693 32.2422C83.3702 31.7647 83.1765 31.2047 83.1119 30.5622H85.7441C85.8322 30.9513 85.9994 31.2784 86.2459 31.5437C86.4924 31.8089 86.8035 32.0123 87.1791 32.1538C87.5547 32.2953 87.9714 32.366 88.4291 32.366C88.8986 32.366 89.3271 32.307 89.7144 32.1891C90.1017 32.0713 90.4128 31.8944 90.6475 31.6586C90.8823 31.4169 90.9997 31.1163 90.9997 30.7567C90.9997 30.4325 90.9028 30.1673 90.7092 29.9609C90.5214 29.7546 90.2661 29.5866 89.9433 29.4569C89.6205 29.3273 89.2537 29.2211 88.8429 29.1386L86.6421 28.6877C85.6796 28.5049 84.9166 28.1218 84.3532 27.5382C83.7898 26.9487 83.4993 26.1647 83.4817 25.1862C83.4758 24.3845 83.6871 23.6919 84.1155 23.1083C84.5498 22.5188 85.1367 22.0649 85.8762 21.7466C86.6215 21.4283 87.4549 21.2691 88.3763 21.2691C89.4738 21.2691 90.3952 21.443 91.1405 21.7908C91.8918 22.1327 92.461 22.5984 92.8484 23.1879C93.2416 23.7715 93.4441 24.4228 93.4558 25.142H90.8764C90.8295 24.694 90.6945 24.3374 90.4715 24.0721C90.2485 23.8068 89.9609 23.6153 89.6088 23.4974C89.2625 23.3795 88.8664 23.3205 88.4203 23.3205C88.0799 23.3205 87.7689 23.3588 87.4872 23.4355C87.2113 23.5121 86.9766 23.6211 86.7829 23.7626C86.5892 23.8982 86.4396 24.0603 86.3339 24.2489C86.2283 24.4376 86.1755 24.6498 86.1755 24.8856C86.1755 25.2569 86.2987 25.5576 86.5452 25.7875C86.7917 26.0174 87.2524 26.206 87.9273 26.3534L90.1106 26.8043C90.8911 26.9576 91.5103 27.1845 91.968 27.4851C92.4317 27.7858 92.7779 28.1247 93.0068 28.502C93.2416 28.8793 93.3942 29.2654 93.4646 29.6603C93.5409 30.0494 93.579 30.4089 93.579 30.739C93.579 31.4287 93.3619 32.0506 92.9276 32.6047C92.4992 33.1529 91.9006 33.5891 91.1317 33.9134C90.3629 34.2317 89.465 34.3908 88.4379 34.3908ZM100.8 34.3908C100.172 34.3908 99.5559 34.3113 98.9514 34.1521C98.3469 33.9929 97.7952 33.7542 97.2964 33.4359C96.7975 33.1176 96.3838 32.7197 96.0551 32.2422C95.7323 31.7647 95.5387 31.2047 95.4741 30.5622H98.1063C98.1943 30.9513 98.3616 31.2784 98.6081 31.5437C98.8546 31.8089 99.1656 32.0123 99.5412 32.1538C99.9168 32.2953 100.334 32.366 100.791 32.366C101.261 32.366 101.689 32.307 102.077 32.1891C102.464 32.0713 102.775 31.8944 103.01 31.6586C103.244 31.4169 103.362 31.1163 103.362 30.7567C103.362 30.4325 103.265 30.1673 103.071 29.9609C102.884 29.7546 102.628 29.5866 102.305 29.4569C101.983 29.3273 101.616 29.2211 101.205 29.1386L99.0042 28.6877C98.0417 28.5049 97.2788 28.1218 96.7154 27.5382C96.1519 26.9487 95.8614 26.1647 95.8438 25.1862C95.838 24.3845 96.0492 23.6919 96.4777 23.1083C96.912 22.5188 97.4989 22.0649 98.2383 21.7466C98.9837 21.4283 99.817 21.2691 100.738 21.2691C101.836 21.2691 102.757 21.443 103.503 21.7908C104.254 22.1327 104.823 22.5984 105.211 23.1879C105.604 23.7715 105.806 24.4228 105.818 25.142H103.239C103.192 24.694 103.057 24.3374 102.834 24.0721C102.611 23.8068 102.323 23.6153 101.971 23.4974C101.625 23.3795 101.229 23.3205 100.782 23.3205C100.442 23.3205 100.131 23.3588 99.8493 23.4355C99.5735 23.5121 99.3387 23.6211 99.1451 23.7626C98.9514 23.8982 98.8017 24.0603 98.6961 24.2489C98.5905 24.4376 98.5376 24.6498 98.5376 24.8856C98.5376 25.2569 98.6609 25.5576 98.9074 25.7875C99.1539 26.0174 99.6146 26.206 100.289 26.3534L102.473 26.8043C103.253 26.9576 103.872 27.1845 104.33 27.4851C104.794 27.7858 105.14 28.1247 105.369 28.502C105.604 28.8793 105.756 29.2654 105.827 29.6603C105.903 30.0494 105.941 30.4089 105.941 30.739C105.941 31.4287 105.724 32.0506 105.29 32.6047C104.861 33.1529 104.263 33.5891 103.494 33.9134C102.725 34.2317 101.827 34.3908 100.8 34.3908Z" fill="#071952"/>
<path d="M113.313 21.2515C114.27 21.2515 115.121 21.446 115.866 21.835C116.617 22.2182 117.222 22.7428 117.679 23.4089C118.143 24.075 118.416 24.8266 118.498 25.6637H115.804C115.722 25.2216 115.573 24.8296 115.355 24.4877C115.138 24.1399 114.854 23.8687 114.501 23.6742C114.149 23.4738 113.727 23.3736 113.234 23.3736C112.641 23.3736 112.13 23.518 111.702 23.8068C111.274 24.0957 110.945 24.5614 110.716 25.2039C110.487 25.8464 110.373 26.6953 110.373 27.7504C110.373 29.342 110.625 30.4944 111.13 31.2077C111.64 31.915 112.342 32.2687 113.234 32.2687C113.727 32.2687 114.149 32.1567 114.501 31.9327C114.854 31.7028 115.138 31.4022 115.355 31.0308C115.573 30.6536 115.722 30.2409 115.804 29.7929H118.498C118.422 30.4001 118.275 30.9807 118.058 31.5348C117.841 32.083 117.533 32.5723 117.134 33.0026C116.735 33.4329 116.221 33.7719 115.593 34.0195C114.965 34.267 114.205 34.3908 113.313 34.3908C112.128 34.3908 111.103 34.1138 110.241 33.5597C109.378 33.0056 108.712 32.2275 108.242 31.2254C107.779 30.2233 107.547 29.0531 107.547 27.715C107.547 26.371 107.779 25.2186 108.242 24.2578C108.706 23.291 109.369 22.5483 110.232 22.0296C111.095 21.5108 112.122 21.2515 113.313 21.2515ZM128.9 28.723H123.327V34.214H120.765V21.4283H123.327V26.5567H128.9V21.4283H131.47V34.214H128.9V28.723ZM134.315 34.214V21.4283H143.056L143.048 23.6035H136.894V26.707H142.238V28.838H136.876V32.0123L143.144 32.0211V34.214H134.315ZM150.607 21.2515C151.563 21.2515 152.414 21.446 153.16 21.835C153.911 22.2182 154.515 22.7428 154.973 23.4089C155.437 24.075 155.71 24.8266 155.792 25.6637H153.098C153.016 25.2216 152.866 24.8296 152.649 24.4877C152.432 24.1399 152.147 23.8687 151.795 23.6742C151.443 23.4738 151.02 23.3736 150.527 23.3736C149.935 23.3736 149.424 23.518 148.996 23.8068C148.567 24.0957 148.239 24.5614 148.01 25.2039C147.781 25.8464 147.666 26.6953 147.666 27.7504C147.666 29.342 147.919 30.4944 148.423 31.2077C148.934 31.915 149.635 32.2687 150.527 32.2687C151.02 32.2687 151.443 32.1567 151.795 31.9327C152.147 31.7028 152.432 31.4022 152.649 31.0308C152.866 30.6536 153.016 30.2409 153.098 29.7929H155.792C155.715 30.4001 155.569 30.9807 155.352 31.5348C155.134 32.083 154.826 32.5723 154.427 33.0026C154.028 33.4329 153.515 33.7719 152.887 34.0195C152.259 34.267 151.499 34.3908 150.607 34.3908C149.421 34.3908 148.397 34.1138 147.534 33.5597C146.672 33.0056 146.005 32.2275 145.536 31.2254C145.072 30.2233 144.84 29.0531 144.84 27.715C144.84 26.371 145.072 25.2186 145.536 24.2578C146 23.291 146.663 22.5483 147.525 22.0296C148.388 21.5108 149.415 21.2515 150.607 21.2515ZM168.781 34.214H165.982L162.61 28.2633L160.726 30.5445V34.214H158.059V21.4283H160.726V27.2818L165.366 21.4283H168.315L164.45 26.3799L168.781 34.214Z" fill="#E25E3E"/>
</svg>
