<svg width="185" height="57" viewBox="0 0 185 57" fill="none" xmlns="http://www.w3.org/2000/svg">
<path d="M25.5679 31C16.9982 20.6533 8.47558 10.36 0 0.12L0.131066 0L22.5332 21L23.8439 19.44C25.6082 17.32 27.3625 15.2 29.1369 13.1C29.3538 12.838 29.6645 12.6695 30.0039 12.63C33.4116 12.63 36.8194 12.63 40.2271 12.63C40.3783 12.63 40.5194 12.63 40.7916 12.7L25.5679 31Z" fill="#E25E3E"/>
<path d="M21.8186 35.6401C20.8104 36.8201 19.893 37.9301 18.9654 39.0501C17.6951 40.5701 16.4349 42.1001 15.1242 43.6101C14.9337 43.8352 14.6628 43.9785 14.3681 44.0101C10.8696 44.0101 7.37121 44.0101 3.87277 44.0101C3.77184 44.014 3.67076 44.0107 3.57031 44.0001L18.784 25.6701C27.3335 36.0035 35.8595 46.2901 44.3619 56.5301L44.251 56.6501L21.8186 35.6401Z" fill="white"/>
<path d="M56.2168 21.6311C57.2028 21.6311 58.0799 21.8291 58.8482 22.2251C59.6224 22.6151 60.2455 23.1491 60.7173 23.8271C61.1952 24.5051 61.4765 25.2701 61.5612 26.1221H58.7846C58.6999 25.6721 58.5457 25.2731 58.3219 24.9251C58.0981 24.5711 57.8047 24.2951 57.4417 24.0971C57.0788 23.8931 56.6432 23.7911 56.1351 23.7911C55.5241 23.7911 54.9978 23.9381 54.5563 24.2321C54.1147 24.5261 53.7759 25.0001 53.54 25.6541C53.3041 26.3081 53.1861 27.1721 53.1861 28.2461C53.1861 29.8661 53.4462 31.0391 53.9665 31.7651C54.4927 32.4851 55.2156 32.8451 56.1351 32.8451C56.6432 32.8451 57.0788 32.7311 57.4417 32.5031C57.8047 32.2691 58.0981 31.9631 58.3219 31.5851C58.5457 31.2011 58.6999 30.7811 58.7846 30.3251H61.5612C61.4826 30.9431 61.3313 31.5341 61.1075 32.0981C60.8837 32.6561 60.5661 33.1541 60.1548 33.5921C59.7434 34.0301 59.2141 34.3751 58.5669 34.6271C57.9196 34.8791 57.1362 35.0051 56.2168 35.0051C54.9948 35.0051 53.9392 34.7231 53.05 34.1591C52.1608 33.5951 51.4742 32.8031 50.9903 31.7831C50.5124 30.7631 50.2734 29.5721 50.2734 28.2101C50.2734 26.8421 50.5124 25.6691 50.9903 24.6911C51.4682 23.7071 52.1517 22.9511 53.0409 22.4231C53.9302 21.8951 54.9888 21.6311 56.2168 21.6311ZM74.0789 34.8251H71.3295L69.1972 29.8121H66.5386V34.8251H63.8981V21.8111H69.4331C70.4796 21.8111 71.3356 21.9761 72.001 22.3061C72.6664 22.6361 73.1564 23.0951 73.4709 23.6831C73.7855 24.2651 73.9428 24.9371 73.9428 25.6991C73.9428 26.3831 73.8339 26.9621 73.6161 27.4361C73.4044 27.9041 73.1231 28.2941 72.7723 28.6061C72.4275 28.9181 72.0494 29.1731 71.638 29.3711L74.0789 34.8251ZM68.9613 27.7871C69.669 27.7871 70.2286 27.5981 70.6399 27.2201C71.0573 26.8421 71.266 26.3561 71.266 25.7621C71.266 25.1621 71.0664 24.6881 70.6671 24.3401C70.2679 23.9921 69.7628 23.8181 69.1518 23.8181H66.5386V27.7871H68.9613ZM81.7039 35.0051C80.4638 35.0051 79.3901 34.7381 78.4827 34.2041C77.5814 33.6641 76.8827 32.8991 76.3866 31.9091C75.8967 30.9131 75.6517 29.7251 75.6517 28.3451C75.6517 26.9591 75.8997 25.7651 76.3957 24.7631C76.8978 23.7611 77.6025 22.9901 78.5099 22.4501C79.4173 21.9041 80.4819 21.6311 81.7039 21.6311C82.9198 21.6311 83.9784 21.9011 84.8797 22.4411C85.781 22.9811 86.4767 23.7521 86.9667 24.7541C87.4627 25.7561 87.7107 26.9531 87.7107 28.3451C87.7107 29.7191 87.4657 30.9041 86.9757 31.9001C86.4918 32.8961 85.7992 33.6641 84.8978 34.2041C83.9965 34.7381 82.9319 35.0051 81.7039 35.0051ZM81.7039 32.8451C82.3451 32.8451 82.8986 32.6951 83.3644 32.3951C83.8362 32.0891 84.1992 31.6091 84.4532 30.9551C84.7073 30.2951 84.8343 29.4371 84.8343 28.3811C84.8343 27.2951 84.7043 26.4161 84.4441 25.7441C84.1901 25.0721 83.8271 24.5801 83.3553 24.2681C82.8895 23.9501 82.339 23.7911 81.7039 23.7911C81.0687 23.7911 80.5152 23.9501 80.0434 24.2681C79.5715 24.5801 79.2056 25.0751 78.9454 25.7531C78.6853 26.4251 78.5553 27.3011 78.5553 28.3811C78.5553 29.4431 78.6853 30.3011 78.9454 30.9551C79.2056 31.6091 79.5715 32.0891 80.0434 32.3951C80.5152 32.6951 81.0687 32.8451 81.7039 32.8451ZM95.054 35.0051C94.4067 35.0051 93.7716 34.9241 93.1485 34.7621C92.5255 34.6001 91.9568 34.3571 91.4426 34.0331C90.9285 33.7091 90.502 33.3041 90.1632 32.8181C89.8305 32.3321 89.6309 31.7621 89.5644 31.1081H92.2774C92.3682 31.5041 92.5406 31.8371 92.7946 32.1071C93.0487 32.3771 93.3693 32.5841 93.7565 32.7281C94.1436 32.8721 94.5731 32.9441 95.0449 32.9441C95.5289 32.9441 95.9705 32.8841 96.3697 32.7641C96.769 32.6441 97.0896 32.4641 97.3315 32.2241C97.5735 31.9781 97.6945 31.6721 97.6945 31.3061C97.6945 30.9761 97.5947 30.7061 97.395 30.4961C97.2015 30.2861 96.9383 30.1151 96.6056 29.9831C96.2729 29.8511 95.8948 29.7431 95.4714 29.6591L93.203 29.2001C92.2109 29.0141 91.4245 28.6241 90.8438 28.0301C90.2631 27.4301 89.9636 26.6321 89.9455 25.6361C89.9394 24.8201 90.1572 24.1151 90.5988 23.5211C91.0464 22.9211 91.6513 22.4591 92.4135 22.1351C93.1818 21.8111 94.0408 21.6491 94.9905 21.6491C96.1217 21.6491 97.0714 21.8261 97.8397 22.1801C98.614 22.5281 99.2007 23.0021 99.6 23.6021C100.005 24.1961 100.214 24.8591 100.226 25.5911H97.5674C97.519 25.1351 97.3799 24.7721 97.15 24.5021C96.9202 24.2321 96.6238 24.0371 96.2608 23.9171C95.9039 23.7971 95.4956 23.7371 95.0359 23.7371C94.685 23.7371 94.3644 23.7761 94.074 23.8541C93.7897 23.9321 93.5478 24.0431 93.3481 24.1871C93.1485 24.3251 92.9943 24.4901 92.8854 24.6821C92.7765 24.8741 92.722 25.0901 92.722 25.3301C92.722 25.7081 92.8491 26.0141 93.1031 26.2481C93.3572 26.4821 93.8321 26.6741 94.5277 26.8241L96.778 27.2831C97.5826 27.4391 98.2208 27.6701 98.6926 27.9761C99.1705 28.2821 99.5274 28.6271 99.7633 29.0111C100.005 29.3951 100.163 29.7881 100.235 30.1901C100.314 30.5861 100.353 30.9521 100.353 31.2881C100.353 31.9901 100.129 32.6231 99.6816 33.1871C99.24 33.7451 98.623 34.1891 97.8306 34.5191C97.0381 34.8431 96.1126 35.0051 95.054 35.0051ZM107.796 35.0051C107.149 35.0051 106.514 34.9241 105.891 34.7621C105.268 34.6001 104.699 34.3571 104.185 34.0331C103.671 33.7091 103.244 33.3041 102.905 32.8181C102.573 32.3321 102.373 31.7621 102.306 31.1081H105.02C105.11 31.5041 105.283 31.8371 105.537 32.1071C105.791 32.3771 106.111 32.5841 106.499 32.7281C106.886 32.8721 107.315 32.9441 107.787 32.9441C108.271 32.9441 108.713 32.8841 109.112 32.7641C109.511 32.6441 109.832 32.4641 110.074 32.2241C110.316 31.9781 110.437 31.6721 110.437 31.3061C110.437 30.9761 110.337 30.7061 110.137 30.4961C109.944 30.2861 109.68 30.1151 109.348 29.9831C109.015 29.8511 108.637 29.7431 108.213 29.6591L105.945 29.2001C104.953 29.0141 104.167 28.6241 103.586 28.0301C103.005 27.4301 102.706 26.6321 102.688 25.6361C102.682 24.8201 102.899 24.1151 103.341 23.5211C103.789 22.9211 104.393 22.4591 105.156 22.1351C105.924 21.8111 106.783 21.6491 107.733 21.6491C108.864 21.6491 109.814 21.8261 110.582 22.1801C111.356 22.5281 111.943 23.0021 112.342 23.6021C112.747 24.1961 112.956 24.8591 112.968 25.5911H110.31C110.261 25.1351 110.122 24.7721 109.892 24.5021C109.662 24.2321 109.366 24.0371 109.003 23.9171C108.646 23.7971 108.238 23.7371 107.778 23.7371C107.427 23.7371 107.106 23.7761 106.816 23.8541C106.532 23.9321 106.29 24.0431 106.09 24.1871C105.891 24.3251 105.736 24.4901 105.627 24.6821C105.519 24.8741 105.464 25.0901 105.464 25.3301C105.464 25.7081 105.591 26.0141 105.845 26.2481C106.099 26.4821 106.574 26.6741 107.27 26.8241L109.52 27.2831C110.325 27.4391 110.963 27.6701 111.435 27.9761C111.913 28.2821 112.269 28.6271 112.505 29.0111C112.747 29.3951 112.905 29.7881 112.977 30.1901C113.056 30.5861 113.095 30.9521 113.095 31.2881C113.095 31.9901 112.871 32.6231 112.424 33.1871C111.982 33.7451 111.365 34.1891 110.573 34.5191C109.78 34.8431 108.855 35.0051 107.796 35.0051Z" fill="white"/>
<path d="M120.689 21.6311C121.675 21.6311 122.553 21.8291 123.321 22.2251C124.095 22.6151 124.718 23.1491 125.19 23.8271C125.668 24.5051 125.949 25.2701 126.034 26.1221H123.257C123.173 25.6721 123.018 25.2731 122.795 24.9251C122.571 24.5711 122.277 24.2951 121.914 24.0971C121.551 23.8931 121.116 23.7911 120.608 23.7911C119.997 23.7911 119.47 23.9381 119.029 24.2321C118.587 24.5261 118.249 25.0001 118.013 25.6541C117.777 26.3081 117.659 27.1721 117.659 28.2461C117.659 29.8661 117.919 31.0391 118.439 31.7651C118.965 32.4851 119.688 32.8451 120.608 32.8451C121.116 32.8451 121.551 32.7311 121.914 32.5031C122.277 32.2691 122.571 31.9631 122.795 31.5851C123.018 31.2011 123.173 30.7811 123.257 30.3251H126.034C125.955 30.9431 125.804 31.5341 125.58 32.0981C125.356 32.6561 125.039 33.1541 124.627 33.5921C124.216 34.0301 123.687 34.3751 123.04 34.6271C122.392 34.8791 121.609 35.0051 120.689 35.0051C119.467 35.0051 118.412 34.7231 117.523 34.1591C116.633 33.5951 115.947 32.8031 115.463 31.7831C114.985 30.7631 114.746 29.5721 114.746 28.2101C114.746 26.8421 114.985 25.6691 115.463 24.6911C115.941 23.7071 116.624 22.9511 117.514 22.4231C118.403 21.8951 119.461 21.6311 120.689 21.6311ZM136.755 29.2361H131.011V34.8251H128.371V21.8111H131.011V27.0311H136.755V21.8111H139.405V34.8251H136.755V29.2361ZM142.336 34.8251V21.8111H151.347L151.338 24.0251H144.995V27.1841H150.503V29.3531H144.977V32.5841L151.437 32.5931V34.8251H142.336ZM159.129 21.6311C160.115 21.6311 160.992 21.8291 161.76 22.2251C162.535 22.6151 163.158 23.1491 163.63 23.8271C164.107 24.5051 164.389 25.2701 164.473 26.1221H161.697C161.612 25.6721 161.458 25.2731 161.234 24.9251C161.01 24.5711 160.717 24.2951 160.354 24.0971C159.991 23.8931 159.555 23.7911 159.047 23.7911C158.436 23.7911 157.91 23.9381 157.468 24.2321C157.027 24.5261 156.688 25.0001 156.452 25.6541C156.216 26.3081 156.098 27.1721 156.098 28.2461C156.098 29.8661 156.358 31.0391 156.879 31.7651C157.405 32.4851 158.128 32.8451 159.047 32.8451C159.555 32.8451 159.991 32.7311 160.354 32.5031C160.717 32.2691 161.01 31.9631 161.234 31.5851C161.458 31.2011 161.612 30.7811 161.697 30.3251H164.473C164.395 30.9431 164.244 31.5341 164.02 32.0981C163.796 32.6561 163.478 33.1541 163.067 33.5921C162.656 34.0301 162.126 34.3751 161.479 34.6271C160.832 34.8791 160.048 35.0051 159.129 35.0051C157.907 35.0051 156.851 34.7231 155.962 34.1591C155.073 33.5951 154.386 32.8031 153.902 31.7831C153.425 30.7631 153.186 29.5721 153.186 28.2101C153.186 26.8421 153.425 25.6691 153.902 24.6911C154.38 23.7071 155.064 22.9511 155.953 22.4231C156.842 21.8951 157.901 21.6311 159.129 21.6311ZM177.862 34.8251H174.977L171.502 28.7681L169.56 31.0901V34.8251H166.81V21.8111H169.56V27.7691L174.342 21.8111H177.381L173.398 26.8511L177.862 34.8251Z" fill="#E25E3E"/>
</svg>
