<svg xmlns="http://www.w3.org/2000/svg" width="61" height="61" viewBox="0 0 61 61" fill="none">
  <g clip-path="url(#clip0_649_4200)">
    <mask id="mask0_649_4200" style="mask-type:luminance" maskUnits="userSpaceOnUse" x="0" y="0" width="61" height="61">
      <path d="M0 15.4429L45.2929 0.102172L60.6336 45.3951L15.3407 60.7358L0 15.4429Z" fill="white"/>
    </mask>
    <g mask="url(#mask0_649_4200)">
      <mask id="mask1_649_4200" style="mask-type:alpha" maskUnits="userSpaceOnUse" x="7" y="7" width="47" height="47">
        <path d="M21.2011 9.9785L21.1999 9.95416C21.0941 7.7912 23.8894 6.84445 25.12 8.62643L25.1336 8.64655L25.1749 8.70654C27.9975 12.8099 31.8237 16.1223 36.289 18.3281C40.7543 20.5339 45.71 21.5597 50.6841 21.3077L50.7567 21.3038L50.7811 21.3027C52.9439 21.1972 53.8905 23.9922 52.1088 25.2228C52.1022 25.2275 52.0955 25.2321 52.0888 25.2366L52.0287 25.2777C43.6853 31.017 38.9151 40.673 39.4275 50.7869L39.4312 50.8596L39.4326 50.8838C39.538 53.0467 36.7428 53.9934 35.5125 52.2116C35.5078 52.2049 35.5032 52.1982 35.4986 52.1915L35.4576 52.1315C32.6349 48.0281 28.8087 44.7158 24.3433 42.51C19.878 40.3042 14.9222 39.2784 9.94814 39.5303L9.87572 39.5342L9.85138 39.5353C7.68834 39.6409 6.74167 36.8459 8.52364 35.6152L8.54369 35.6014L8.60353 35.5604C12.707 32.7378 16.0194 28.9117 18.2252 24.4463C20.4311 19.981 21.4569 15.0252 21.205 10.0511L21.2011 9.9785Z" fill="white"/>
      </mask>
      <g mask="url(#mask1_649_4200)">
        <path d="M45.2929 0.102172L0 15.4429L15.3407 60.7358L60.6336 45.3951L45.2929 0.102172Z" fill="white"/>
        <path d="M45.2929 0.102172L0 15.4429L15.3407 60.7358L60.6336 45.3951L45.2929 0.102172Z" fill="url(#paint0_radial_649_4200)"/>
        <path d="M45.2929 0.102172L0 15.4429L15.3407 60.7358L60.6336 45.3951L45.2929 0.102172Z" fill="url(#paint1_radial_649_4200)"/>
      </g>
    </g>
  </g>
  <defs>
    <radialGradient id="paint0_radial_649_4200" cx="0" cy="0" r="1" gradientUnits="userSpaceOnUse" gradientTransform="translate(46.0126 16.0149) rotate(97.9828) scale(47.6372)">
      <stop stop-color="#FFF500"/>
      <stop offset="1" stop-color="#FF00D6" stop-opacity="0"/>
    </radialGradient>
    <radialGradient id="paint1_radial_649_4200" cx="0" cy="0" r="1" gradientUnits="userSpaceOnUse" gradientTransform="translate(15.8448 39.8644) rotate(-38.7482) scale(32.4497)">
      <stop stop-color="#FF00D6"/>
      <stop offset="0.461" stop-color="#FF7171" stop-opacity="0.84"/>
      <stop offset="1" stop-color="#FFF500" stop-opacity="0"/>
    </radialGradient>
    <clipPath id="clip0_649_4200">
      <rect width="47.8204" height="47.8204" fill="white" transform="translate(0 15.4429) rotate(-18.7112)"/>
    </clipPath>
  </defs>
</svg>