<svg width="20" height="19" viewBox="0 0 20 19" fill="none" xmlns="http://www.w3.org/2000/svg">
<path d="M9.9987 18.6666C9.77768 18.6666 9.56572 18.5788 9.40944 18.4225C9.25316 18.2662 9.16536 18.0543 9.16536 17.8333V15.3333H5.83203C5.39 15.3333 4.96608 15.1577 4.65352 14.8451C4.34096 14.5325 4.16536 14.1086 4.16536 13.6666V5.33325C4.16536 4.89122 4.34096 4.4673 4.65352 4.15474C4.96608 3.84218 5.39 3.66658 5.83203 3.66658H17.4987C17.9407 3.66658 18.3646 3.84218 18.6772 4.15474C18.9898 4.4673 19.1654 4.89122 19.1654 5.33325V13.6666C19.1654 14.1086 18.9898 14.5325 18.6772 14.8451C18.3646 15.1577 17.9407 15.3333 17.4987 15.3333H14.082L10.9987 18.4249C10.832 18.5833 10.6237 18.6666 10.4154 18.6666H9.9987ZM10.832 13.6666V16.2333L13.3987 13.6666H17.4987V5.33325H5.83203V13.6666H10.832ZM2.4987 11.9999H0.832031V1.99992C0.832031 1.55789 1.00763 1.13397 1.32019 0.821407C1.63275 0.508847 2.05667 0.333252 2.4987 0.333252H15.832V1.99992H2.4987V11.9999Z" fill="#252525"/>
</svg>
