<svg width="586" height="591" viewBox="0 0 586 591" fill="none" xmlns="http://www.w3.org/2000/svg">
<mask id="mask0_649_4047" style="mask-type:alpha" maskUnits="userSpaceOnUse" x="0" y="0" width="586" height="593">
<path opacity="0.6" d="M0 0.5H567C577.493 0.5 586 9.00659 586 19.5L584 20C584 10.8873 576.389 3.5 567 3.5H0V0.5ZM586 592.5H0V589.5H584L586 592.5ZM0 591V2V591ZM567 0.5C577.493 0.5 586 9.00659 586 19.5V592.5L584 589.5V20C584 10.8873 576.389 3.5 567 3.5V0.5Z" fill="white"/>
<mask id="path-2-inside-1_649_4047" fill="white">
<path d="M8 25H376C385.941 25 394 33.0589 394 43V47C394 56.9411 385.941 65 376 65H8V25Z"/>
</mask>
<path d="M8 25H376C385.941 25 394 33.0589 394 43V47C394 56.9411 385.941 65 376 65H8V25Z" fill="#F2F2F2"/>
<path d="M8 23H376C387.046 23 396 31.9543 396 43H392C392 34.1634 384.837 27 376 27H8V23ZM396 47C396 58.0457 387.046 67 376 67H8V63H376C384.837 63 392 55.8366 392 47H396ZM8 65V25V65ZM376 23C387.046 23 396 31.9543 396 43V47C396 58.0457 387.046 67 376 67V63C384.837 63 392 55.8366 392 47V43C392 34.1634 384.837 27 376 27V23Z" fill="white" mask="url(#path-2-inside-1_649_4047)"/>
<rect x="407" y="26" width="46" height="38" rx="17" stroke="white" stroke-width="2"/>
<rect x="457" y="25" width="48" height="40" rx="18" fill="#FFAB97"/>
<rect x="511.5" y="25.5" width="39" height="39" rx="19.5" fill="white" stroke="white"/>
<circle cx="559" cy="32" r="3" fill="white"/>
<circle cx="559" cy="45" r="3" fill="white"/>
<ellipse cx="559" cy="58.5" rx="3" ry="3.5" fill="white"/>
<line x1="8" y1="81" x2="585" y2="81" stroke="white" stroke-width="2"/>
</mask>
<g mask="url(#mask0_649_4047)">
<rect x="25" y="-32" width="612" height="592" fill="url(#paint0_linear_649_4047)"/>
<path d="M482.68 46.2281C478.43 41.1455 474.203 36.0891 470 31.0589L470.065 31L481.175 41.3158L481.825 40.5495C482.7 39.5081 483.57 38.4667 484.45 37.4351C484.558 37.3064 484.712 37.2236 484.88 37.2042C486.57 37.2042 488.26 37.2042 489.95 37.2042C490.025 37.2042 490.095 37.2042 490.23 37.2386L482.68 46.2281Z" fill="white"/>
<path d="M480.82 48.5074C480.32 49.0871 479.865 49.6323 479.405 50.1825C478.775 50.9292 478.15 51.6807 477.5 52.4225C477.405 52.533 477.271 52.6034 477.125 52.619C475.39 52.619 473.655 52.619 471.92 52.619C471.869 52.6209 471.819 52.6193 471.77 52.6141L479.315 43.6099C483.555 48.6859 487.783 53.739 492 58.7692L491.945 58.8281L480.82 48.5074Z" fill="white"/>
</g>
<defs>
<linearGradient id="paint0_linear_649_4047" x1="706.822" y1="264" x2="25" y2="264" gradientUnits="userSpaceOnUse">
<stop stop-color="#D6593F" stop-opacity="0.8"/>
<stop offset="1" stop-opacity="0"/>
</linearGradient>
</defs>
</svg>
