<svg width="18" height="17" viewBox="0 0 18 17" fill="none" xmlns="http://www.w3.org/2000/svg">
<path d="M4.5 1H13.5C13.8625 1 14.1999 1.12899 14.4404 1.34277C14.6788 1.55473 14.7997 1.82832 14.7998 2.09961V10.0996C14.7998 10.3711 14.679 10.6453 14.4404 10.8574C14.1999 11.0712 13.8625 11.2002 13.5 11.2002H9.40039V13.7998H10.7998C10.9237 13.7998 11.0328 13.8445 11.1045 13.9082C11.174 13.9701 11.2001 14.0405 11.2002 14.0996V14.5996H17.5V15.2002H11.2002V15.7002C11.2001 15.7593 11.174 15.8297 11.1045 15.8916C11.0328 15.9554 10.9237 16 10.7998 16H7.2002C7.07634 16 6.96723 15.9554 6.89551 15.8916C6.82604 15.8297 6.79986 15.7593 6.7998 15.7002V15.2002H0.5V14.5996H6.7998V14.0996C6.79992 14.0405 6.82604 13.9701 6.89551 13.9082C6.96723 13.8445 7.07634 13.7998 7.2002 13.7998H8.59961V11.2002H4.5C4.13745 11.2002 3.80007 11.0712 3.55957 10.8574C3.321 10.6453 3.2002 10.3711 3.2002 10.0996V2.09961C3.20031 1.82832 3.32118 1.55473 3.55957 1.34277C3.80007 1.12899 4.13745 1 4.5 1ZM4 10.5996H14V1.59961H4V10.5996Z" fill="#BD2750" stroke="#252525"/>
</svg>
