<svg width="556" height="205" viewBox="0 0 556 205" fill="none" xmlns="http://www.w3.org/2000/svg">
<g clip-path="url(#clip0_508_1619)">
<rect width="556" height="205" rx="12" fill="#F4F4F4"/>
<g filter="url(#filter0_f_508_1619)">
<circle cx="449.5" cy="106.5" r="106.5" fill="#B1C4FF"/>
</g>
<path d="M32.7102 67.9901V65.4545H44.6562V67.9901H40.2031V80H37.1634V67.9901H32.7102ZM45.4339 80V69.0909H48.3672V70.9943H48.4808C48.6797 70.3172 49.0135 69.8059 49.4822 69.4602C49.951 69.1098 50.4908 68.9347 51.1016 68.9347C51.2531 68.9347 51.4164 68.9441 51.5916 68.9631C51.7668 68.982 51.9207 69.008 52.0533 69.0412V71.7259C51.9112 71.6832 51.7147 71.6454 51.4638 71.6122C51.2128 71.5791 50.9832 71.5625 50.7749 71.5625C50.3298 71.5625 49.9321 71.6596 49.5817 71.8537C49.236 72.0431 48.9614 72.3082 48.7578 72.6491C48.5589 72.9901 48.4595 73.383 48.4595 73.8281V80H45.4339ZM56.4158 80.206C55.7198 80.206 55.0996 80.0852 54.555 79.8438C54.0105 79.5975 53.5797 79.2353 53.2624 78.7571C52.9499 78.2741 52.7937 77.6728 52.7937 76.9531C52.7937 76.3471 52.9049 75.8381 53.1275 75.4261C53.35 75.0142 53.6531 74.6828 54.0366 74.4318C54.4201 74.1809 54.8557 73.9915 55.3434 73.8636C55.8358 73.7358 56.3519 73.6458 56.8917 73.5938C57.5262 73.5275 58.0375 73.4659 58.4258 73.4091C58.814 73.3475 59.0958 73.2576 59.271 73.1392C59.4461 73.0208 59.5337 72.8456 59.5337 72.6136V72.571C59.5337 72.1212 59.3917 71.7732 59.1076 71.527C58.8282 71.2808 58.4305 71.1577 57.9144 71.1577C57.3699 71.1577 56.9367 71.2784 56.6147 71.5199C56.2927 71.7566 56.0797 72.0549 55.9755 72.4148L53.1772 72.1875C53.3192 71.5246 53.5986 70.9517 54.0153 70.4688C54.4319 69.9811 54.9693 69.607 55.6275 69.3466C56.2904 69.0814 57.0574 68.9489 57.9286 68.9489C58.5347 68.9489 59.1147 69.0199 59.6687 69.1619C60.2274 69.304 60.7222 69.5241 61.1531 69.8224C61.5887 70.1207 61.9319 70.5043 62.1829 70.973C62.4338 71.437 62.5593 71.9934 62.5593 72.642V80H59.69V78.4872H59.6048C59.4296 78.8281 59.1952 79.1288 58.9016 79.3892C58.6081 79.6449 58.2553 79.8461 57.8434 79.9929C57.4315 80.1349 56.9556 80.206 56.4158 80.206ZM57.2823 78.1179C57.7274 78.1179 58.1204 78.0303 58.4613 77.8551C58.8022 77.6752 59.0697 77.4337 59.2638 77.1307C59.458 76.8277 59.555 76.4844 59.555 76.1009V74.9432C59.4603 75.0047 59.3301 75.0616 59.1644 75.1136C59.0034 75.161 58.8211 75.206 58.6175 75.2486C58.4139 75.2865 58.2103 75.322 58.0067 75.3551C57.8031 75.3835 57.6185 75.4096 57.4528 75.4332C57.0977 75.4853 56.7875 75.5682 56.5224 75.6818C56.2572 75.7955 56.0513 75.9493 55.9045 76.1435C55.7577 76.3329 55.6843 76.5696 55.6843 76.8537C55.6843 77.2656 55.8335 77.5805 56.1317 77.7983C56.4348 78.0114 56.8183 78.1179 57.2823 78.1179ZM69.8356 80.2131C68.7182 80.2131 67.757 79.9763 66.9521 79.5028C66.1519 79.0246 65.5363 78.3617 65.1055 77.5142C64.6793 76.6667 64.4663 75.6913 64.4663 74.5881C64.4663 73.4706 64.6817 72.4905 65.1126 71.6477C65.5482 70.8002 66.1661 70.1397 66.9663 69.6662C67.7665 69.188 68.7182 68.9489 69.8214 68.9489C70.7731 68.9489 71.6064 69.1217 72.3214 69.4673C73.0363 69.813 73.6022 70.2983 74.0188 70.9233C74.4355 71.5483 74.6651 72.2822 74.7077 73.125H71.8526C71.7721 72.5805 71.5591 72.1425 71.2134 71.8111C70.8725 71.4749 70.4251 71.3068 69.8711 71.3068C69.4023 71.3068 68.9928 71.4347 68.6424 71.6903C68.2968 71.9413 68.0269 72.3082 67.8327 72.7912C67.6386 73.2741 67.5415 73.8589 67.5415 74.5455C67.5415 75.2415 67.6362 75.8333 67.8256 76.321C68.0198 76.8087 68.292 77.1804 68.6424 77.4361C68.9928 77.6918 69.4023 77.8196 69.8711 77.8196C70.2167 77.8196 70.5269 77.7486 70.8015 77.6065C71.0808 77.4645 71.3105 77.2585 71.4904 76.9886C71.6751 76.714 71.7958 76.3849 71.8526 76.0014H74.7077C74.6604 76.8348 74.4331 77.5687 74.0259 78.2031C73.6235 78.8329 73.0671 79.3253 72.3569 79.6804C71.6467 80.0355 70.8062 80.2131 69.8356 80.2131ZM79.3864 76.8608L79.3935 73.2315H79.8338L83.3281 69.0909H86.8011L82.1065 74.5739H81.3892L79.3864 76.8608ZM76.6449 80V65.4545H79.6705V80H76.6449ZM83.4631 80L80.2528 75.2486L82.2699 73.1108L87.0071 80H83.4631ZM92.9712 80V65.4545H102.772V67.9901H96.0465V71.456H102.268V73.9915H96.0465V77.4645H102.801V80H92.9712ZM115.331 69.0909L111.517 80H108.108L104.294 69.0909H107.49L109.756 76.8963H109.869L112.128 69.0909H115.331ZM121.499 80.2131C120.377 80.2131 119.411 79.9858 118.602 79.5312C117.797 79.072 117.176 78.4233 116.741 77.5852C116.305 76.7424 116.087 75.7457 116.087 74.5952C116.087 73.473 116.305 72.4882 116.741 71.6406C117.176 70.7931 117.79 70.1326 118.58 69.6591C119.376 69.1856 120.308 68.9489 121.379 68.9489C122.098 68.9489 122.768 69.0649 123.388 69.2969C124.013 69.5241 124.558 69.8674 125.022 70.3267C125.491 70.786 125.855 71.3636 126.116 72.0597C126.376 72.7509 126.506 73.5606 126.506 74.4886V75.3196H117.295V73.4446H123.658C123.658 73.009 123.564 72.6231 123.374 72.2869C123.185 71.9508 122.922 71.688 122.586 71.4986C122.254 71.3045 121.869 71.2074 121.428 71.2074C120.969 71.2074 120.562 71.3139 120.207 71.527C119.856 71.7353 119.582 72.017 119.383 72.3722C119.184 72.7225 119.082 73.1132 119.077 73.544V75.3267C119.077 75.8665 119.177 76.3329 119.376 76.7259C119.579 77.1188 119.866 77.4219 120.235 77.6349C120.604 77.848 121.042 77.9545 121.549 77.9545C121.885 77.9545 122.193 77.9072 122.472 77.8125C122.752 77.7178 122.991 77.5758 123.19 77.3864C123.388 77.197 123.54 76.965 123.644 76.6903L126.442 76.875C126.3 77.5473 126.009 78.1345 125.569 78.6364C125.133 79.1335 124.57 79.5218 123.879 79.8011C123.192 80.0758 122.399 80.2131 121.499 80.2131ZM128.481 80V69.0909H131.414V70.9943H131.528C131.727 70.3172 132.06 69.8059 132.529 69.4602C132.998 69.1098 133.538 68.9347 134.148 68.9347C134.3 68.9347 134.463 68.9441 134.638 68.9631C134.814 68.982 134.968 69.008 135.1 69.0412V71.7259C134.958 71.6832 134.762 71.6454 134.511 71.6122C134.26 71.5791 134.03 71.5625 133.822 71.5625C133.377 71.5625 132.979 71.6596 132.629 71.8537C132.283 72.0431 132.008 72.3082 131.805 72.6491C131.606 72.9901 131.506 73.383 131.506 73.8281V80H128.481ZM138.864 84.0909C138.481 84.0909 138.121 84.0601 137.785 83.9986C137.453 83.9418 137.179 83.8684 136.961 83.7784L137.643 81.5199C137.998 81.6288 138.317 81.688 138.602 81.6974C138.89 81.7069 139.139 81.6406 139.347 81.4986C139.56 81.3565 139.733 81.1151 139.866 80.7741L140.043 80.3125L136.13 69.0909H139.312L141.57 77.1023H141.684L143.964 69.0909H147.167L142.927 81.179C142.723 81.7661 142.446 82.2775 142.096 82.7131C141.75 83.1534 141.312 83.492 140.782 83.7287C140.252 83.9702 139.612 84.0909 138.864 84.0909ZM155.908 80H152.613L157.634 65.4545H161.597L166.611 80H163.316L159.672 68.7784H159.559L155.908 80ZM155.702 74.2827H163.486V76.6832H155.702V74.2827ZM172.726 80.2131C171.609 80.2131 170.648 79.9763 169.843 79.5028C169.042 79.0246 168.427 78.3617 167.996 77.5142C167.57 76.6667 167.357 75.6913 167.357 74.5881C167.357 73.4706 167.572 72.4905 168.003 71.6477C168.439 70.8002 169.057 70.1397 169.857 69.6662C170.657 69.188 171.609 68.9489 172.712 68.9489C173.664 68.9489 174.497 69.1217 175.212 69.4673C175.927 69.813 176.493 70.2983 176.909 70.9233C177.326 71.5483 177.556 72.2822 177.598 73.125H174.743C174.663 72.5805 174.45 72.1425 174.104 71.8111C173.763 71.4749 173.316 71.3068 172.762 71.3068C172.293 71.3068 171.883 71.4347 171.533 71.6903C171.187 71.9413 170.917 72.3082 170.723 72.7912C170.529 73.2741 170.432 73.8589 170.432 74.5455C170.432 75.2415 170.527 75.8333 170.716 76.321C170.91 76.8087 171.183 77.1804 171.533 77.4361C171.883 77.6918 172.293 77.8196 172.762 77.8196C173.107 77.8196 173.417 77.7486 173.692 77.6065C173.971 77.4645 174.201 77.2585 174.381 76.9886C174.566 76.714 174.686 76.3849 174.743 76.0014H177.598C177.551 76.8348 177.324 77.5687 176.917 78.2031C176.514 78.8329 175.958 79.3253 175.248 79.6804C174.537 80.0355 173.697 80.2131 172.726 80.2131ZM185.338 69.0909V71.3636H178.768V69.0909H185.338ZM180.26 66.4773H183.286V76.6477C183.286 76.9271 183.328 77.1449 183.413 77.3011C183.499 77.4527 183.617 77.5592 183.768 77.6207C183.925 77.6823 184.105 77.7131 184.308 77.7131C184.45 77.7131 184.592 77.7012 184.734 77.6776C184.876 77.6491 184.985 77.6278 185.061 77.6136L185.537 79.8651C185.385 79.9124 185.172 79.9669 184.898 80.0284C184.623 80.0947 184.289 80.1349 183.896 80.1491C183.167 80.1776 182.528 80.0805 181.979 79.858C181.434 79.6354 181.01 79.2898 180.707 78.821C180.404 78.3523 180.255 77.7604 180.26 77.0455V66.4773ZM187.309 80V69.0909H190.335V80H187.309ZM188.829 67.6847C188.379 67.6847 187.993 67.5355 187.671 67.2372C187.354 66.9342 187.195 66.572 187.195 66.1506C187.195 65.7339 187.354 65.3764 187.671 65.0781C187.993 64.7751 188.379 64.6236 188.829 64.6236C189.279 64.6236 189.662 64.7751 189.979 65.0781C190.301 65.3764 190.462 65.7339 190.462 66.1506C190.462 66.572 190.301 66.9342 189.979 67.2372C189.662 67.5355 189.279 67.6847 188.829 67.6847ZM197.687 80.2131C196.584 80.2131 195.63 79.9787 194.825 79.5099C194.025 79.0365 193.407 78.3783 192.971 77.5355C192.536 76.688 192.318 75.7055 192.318 74.5881C192.318 73.4612 192.536 72.4763 192.971 71.6335C193.407 70.786 194.025 70.1278 194.825 69.6591C195.63 69.1856 196.584 68.9489 197.687 68.9489C198.79 68.9489 199.742 69.1856 200.542 69.6591C201.347 70.1278 201.967 70.786 202.403 71.6335C202.839 72.4763 203.056 73.4612 203.056 74.5881C203.056 75.7055 202.839 76.688 202.403 77.5355C201.967 78.3783 201.347 79.0365 200.542 79.5099C199.742 79.9787 198.79 80.2131 197.687 80.2131ZM197.701 77.8693C198.203 77.8693 198.622 77.7273 198.958 77.4432C199.295 77.1544 199.548 76.7614 199.718 76.2642C199.894 75.767 199.981 75.2012 199.981 74.5668C199.981 73.9323 199.894 73.3665 199.718 72.8693C199.548 72.3722 199.295 71.9792 198.958 71.6903C198.622 71.4015 198.203 71.2571 197.701 71.2571C197.195 71.2571 196.769 71.4015 196.423 71.6903C196.082 71.9792 195.824 72.3722 195.649 72.8693C195.478 73.3665 195.393 73.9323 195.393 74.5668C195.393 75.2012 195.478 75.767 195.649 76.2642C195.824 76.7614 196.082 77.1544 196.423 77.4432C196.769 77.7273 197.195 77.8693 197.701 77.8693ZM208.049 73.6932V80H205.024V69.0909H207.907V71.0156H208.035C208.277 70.3812 208.681 69.8793 209.25 69.5099C209.818 69.1359 210.507 68.9489 211.316 68.9489C212.074 68.9489 212.734 69.1146 213.298 69.446C213.861 69.7775 214.299 70.2509 214.612 70.8665C214.924 71.4773 215.081 72.2064 215.081 73.054V80H212.055V73.5938C212.06 72.9261 211.889 72.4053 211.544 72.0312C211.198 71.6525 210.722 71.4631 210.116 71.4631C209.709 71.4631 209.349 71.5507 209.037 71.7259C208.729 71.901 208.487 72.1567 208.312 72.4929C208.142 72.8243 208.054 73.2244 208.049 73.6932Z" fill="black"/>
<path d="M32.7727 101.614V100.364H41.5V101.614H37.8409V112H36.4318V101.614H32.7727ZM44.8338 106.75V112H43.4929V100.364H44.8338V104.636H44.9474C45.152 104.186 45.4588 103.828 45.8679 103.562C46.2808 103.294 46.83 103.159 47.5156 103.159C48.1103 103.159 48.6312 103.278 49.0781 103.517C49.5251 103.752 49.8717 104.114 50.1179 104.602C50.3679 105.087 50.4929 105.705 50.4929 106.455V112H49.152V106.545C49.152 105.852 48.9721 105.316 48.6122 104.938C48.2562 104.555 47.7618 104.364 47.1293 104.364C46.6899 104.364 46.2959 104.456 45.9474 104.642C45.6027 104.828 45.33 105.098 45.1293 105.455C44.9323 105.811 44.8338 106.242 44.8338 106.75ZM56.6051 112.182C55.7642 112.182 55.0388 111.996 54.429 111.625C53.8229 111.25 53.3551 110.727 53.0256 110.057C52.6998 109.383 52.5369 108.598 52.5369 107.705C52.5369 106.811 52.6998 106.023 53.0256 105.341C53.3551 104.655 53.8134 104.121 54.4006 103.739C54.9915 103.352 55.6809 103.159 56.4688 103.159C56.9233 103.159 57.3722 103.235 57.8153 103.386C58.2585 103.538 58.6619 103.784 59.0256 104.125C59.3892 104.462 59.679 104.909 59.8949 105.466C60.1108 106.023 60.2188 106.708 60.2188 107.523V108.091H53.4915V106.932H58.8551C58.8551 106.439 58.7566 106 58.5597 105.614C58.3665 105.227 58.09 104.922 57.7301 104.699C57.3741 104.475 56.9536 104.364 56.4688 104.364C55.9347 104.364 55.4725 104.496 55.0824 104.761C54.696 105.023 54.3987 105.364 54.1903 105.784C53.982 106.205 53.8778 106.655 53.8778 107.136V107.909C53.8778 108.568 53.9915 109.127 54.2188 109.585C54.4498 110.04 54.7699 110.386 55.179 110.625C55.5881 110.86 56.0634 110.977 56.6051 110.977C56.9574 110.977 57.2756 110.928 57.5597 110.83C57.8475 110.727 58.0956 110.576 58.304 110.375C58.5123 110.17 58.6733 109.917 58.7869 109.614L60.0824 109.977C59.946 110.417 59.7169 110.803 59.3949 111.136C59.0729 111.466 58.6752 111.723 58.2017 111.909C57.7282 112.091 57.196 112.182 56.6051 112.182ZM67.4176 112H65.9403L70.2131 100.364H71.6676L75.9403 112H74.4631L70.9858 102.205H70.8949L67.4176 112ZM67.9631 107.455H73.9176V108.705H67.9631V107.455ZM81.1165 112.182C80.2983 112.182 79.5938 111.989 79.0028 111.602C78.4119 111.216 77.9574 110.684 77.6392 110.006C77.321 109.328 77.1619 108.553 77.1619 107.682C77.1619 106.795 77.3248 106.013 77.6506 105.335C77.9801 104.653 78.4384 104.121 79.0256 103.739C79.6165 103.352 80.3059 103.159 81.0938 103.159C81.7074 103.159 82.2604 103.273 82.7528 103.5C83.2453 103.727 83.6487 104.045 83.9631 104.455C84.2775 104.864 84.4725 105.341 84.5483 105.886H83.2074C83.1051 105.489 82.8778 105.136 82.5256 104.83C82.1771 104.519 81.7074 104.364 81.1165 104.364C80.5938 104.364 80.1354 104.5 79.7415 104.773C79.3513 105.042 79.0464 105.422 78.8267 105.915C78.6108 106.403 78.5028 106.977 78.5028 107.636C78.5028 108.311 78.6089 108.898 78.821 109.398C79.0369 109.898 79.34 110.286 79.7301 110.562C80.1241 110.839 80.5862 110.977 81.1165 110.977C81.465 110.977 81.7812 110.917 82.0653 110.795C82.3494 110.674 82.59 110.5 82.7869 110.273C82.9839 110.045 83.1241 109.773 83.2074 109.455H84.5483C84.4725 109.97 84.285 110.434 83.9858 110.847C83.6903 111.256 83.2983 111.581 82.8097 111.824C82.3248 112.062 81.7604 112.182 81.1165 112.182ZM90.304 103.273V104.409H85.7812V103.273H90.304ZM87.0994 101.182H88.4403V109.5C88.4403 109.879 88.4953 110.163 88.6051 110.352C88.7188 110.538 88.8627 110.663 89.0369 110.727C89.215 110.788 89.4025 110.818 89.5994 110.818C89.7472 110.818 89.8684 110.811 89.9631 110.795C90.0578 110.777 90.1335 110.761 90.1903 110.75L90.4631 111.955C90.3722 111.989 90.2453 112.023 90.0824 112.057C89.9195 112.095 89.7131 112.114 89.4631 112.114C89.0843 112.114 88.7131 112.032 88.3494 111.869C87.9896 111.706 87.6903 111.458 87.4517 111.125C87.2169 110.792 87.0994 110.371 87.0994 109.864V101.182ZM92.321 112V103.273H93.6619V112H92.321ZM93.0028 101.818C92.7415 101.818 92.5161 101.729 92.3267 101.551C92.1411 101.373 92.0483 101.159 92.0483 100.909C92.0483 100.659 92.1411 100.445 92.3267 100.267C92.5161 100.089 92.7415 100 93.0028 100C93.2642 100 93.4877 100.089 93.6733 100.267C93.8627 100.445 93.9574 100.659 93.9574 100.909C93.9574 101.159 93.8627 101.373 93.6733 101.551C93.4877 101.729 93.2642 101.818 93.0028 101.818ZM99.6634 112.182C98.8755 112.182 98.1842 111.994 97.5895 111.619C96.9986 111.244 96.5365 110.72 96.2031 110.045C95.8736 109.371 95.7088 108.583 95.7088 107.682C95.7088 106.773 95.8736 105.979 96.2031 105.301C96.5365 104.623 96.9986 104.097 97.5895 103.722C98.1842 103.347 98.8755 103.159 99.6634 103.159C100.451 103.159 101.141 103.347 101.732 103.722C102.326 104.097 102.788 104.623 103.118 105.301C103.451 105.979 103.618 106.773 103.618 107.682C103.618 108.583 103.451 109.371 103.118 110.045C102.788 110.72 102.326 111.244 101.732 111.619C101.141 111.994 100.451 112.182 99.6634 112.182ZM99.6634 110.977C100.262 110.977 100.754 110.824 101.141 110.517C101.527 110.21 101.813 109.807 101.999 109.307C102.184 108.807 102.277 108.265 102.277 107.682C102.277 107.098 102.184 106.555 101.999 106.051C101.813 105.547 101.527 105.14 101.141 104.83C100.754 104.519 100.262 104.364 99.6634 104.364C99.0649 104.364 98.5724 104.519 98.1861 104.83C97.7997 105.14 97.5137 105.547 97.3281 106.051C97.1425 106.555 97.0497 107.098 97.0497 107.682C97.0497 108.265 97.1425 108.807 97.3281 109.307C97.5137 109.807 97.7997 110.21 98.1861 110.517C98.5724 110.824 99.0649 110.977 99.6634 110.977ZM107.006 106.75V112H105.665V103.273H106.96V104.636H107.074C107.278 104.193 107.589 103.837 108.006 103.568C108.422 103.295 108.96 103.159 109.619 103.159C110.21 103.159 110.727 103.28 111.17 103.523C111.614 103.761 111.958 104.125 112.205 104.614C112.451 105.098 112.574 105.712 112.574 106.455V112H111.233V106.545C111.233 105.86 111.055 105.326 110.699 104.943C110.343 104.557 109.854 104.364 109.233 104.364C108.805 104.364 108.422 104.456 108.085 104.642C107.752 104.828 107.489 105.098 107.295 105.455C107.102 105.811 107.006 106.242 107.006 106.75ZM121.206 105.227L120.001 105.568C119.926 105.367 119.814 105.172 119.666 104.983C119.522 104.79 119.325 104.631 119.075 104.506C118.825 104.381 118.505 104.318 118.115 104.318C117.581 104.318 117.136 104.441 116.78 104.688C116.428 104.93 116.251 105.239 116.251 105.614C116.251 105.947 116.373 106.21 116.615 106.403C116.857 106.597 117.236 106.758 117.751 106.886L119.047 107.205C119.827 107.394 120.409 107.684 120.791 108.074C121.174 108.46 121.365 108.958 121.365 109.568C121.365 110.068 121.221 110.515 120.933 110.909C120.649 111.303 120.251 111.614 119.74 111.841C119.229 112.068 118.634 112.182 117.956 112.182C117.066 112.182 116.329 111.989 115.746 111.602C115.162 111.216 114.793 110.652 114.638 109.909L115.911 109.591C116.032 110.061 116.261 110.413 116.598 110.648C116.939 110.883 117.384 111 117.933 111C118.558 111 119.054 110.867 119.422 110.602C119.793 110.333 119.979 110.011 119.979 109.636C119.979 109.333 119.873 109.08 119.661 108.875C119.448 108.667 119.123 108.511 118.683 108.409L117.229 108.068C116.429 107.879 115.842 107.585 115.467 107.188C115.096 106.786 114.911 106.284 114.911 105.682C114.911 105.189 115.049 104.754 115.325 104.375C115.606 103.996 115.986 103.699 116.467 103.483C116.952 103.267 117.501 103.159 118.115 103.159C118.979 103.159 119.657 103.348 120.149 103.727C120.645 104.106 120.998 104.606 121.206 105.227ZM127.884 115.273V103.273H129.179V104.659H129.338C129.437 104.508 129.573 104.314 129.747 104.08C129.925 103.841 130.179 103.629 130.509 103.443C130.842 103.254 131.293 103.159 131.861 103.159C132.596 103.159 133.243 103.343 133.804 103.71C134.365 104.078 134.802 104.598 135.116 105.273C135.431 105.947 135.588 106.742 135.588 107.659C135.588 108.583 135.431 109.384 135.116 110.062C134.802 110.737 134.366 111.259 133.81 111.631C133.253 111.998 132.611 112.182 131.884 112.182C131.323 112.182 130.874 112.089 130.537 111.903C130.2 111.714 129.94 111.5 129.759 111.261C129.577 111.019 129.437 110.818 129.338 110.659H129.224V115.273H127.884ZM129.202 107.636C129.202 108.295 129.298 108.877 129.491 109.381C129.685 109.881 129.967 110.273 130.338 110.557C130.709 110.837 131.164 110.977 131.702 110.977C132.262 110.977 132.73 110.83 133.105 110.534C133.484 110.235 133.768 109.833 133.957 109.33C134.151 108.822 134.247 108.258 134.247 107.636C134.247 107.023 134.152 106.47 133.963 105.977C133.777 105.481 133.495 105.089 133.116 104.801C132.741 104.509 132.27 104.364 131.702 104.364C131.156 104.364 130.698 104.502 130.327 104.778C129.955 105.051 129.675 105.434 129.486 105.926C129.296 106.415 129.202 106.985 129.202 107.636ZM140.202 112.205C139.649 112.205 139.147 112.1 138.696 111.892C138.245 111.68 137.887 111.375 137.622 110.977C137.357 110.576 137.224 110.091 137.224 109.523C137.224 109.023 137.323 108.617 137.52 108.307C137.717 107.992 137.98 107.746 138.31 107.568C138.639 107.39 139.003 107.258 139.401 107.17C139.802 107.08 140.205 107.008 140.611 106.955C141.141 106.886 141.571 106.835 141.901 106.801C142.234 106.763 142.476 106.701 142.628 106.614C142.783 106.527 142.861 106.375 142.861 106.159V106.114C142.861 105.553 142.707 105.117 142.401 104.807C142.098 104.496 141.637 104.341 141.02 104.341C140.38 104.341 139.878 104.481 139.514 104.761C139.151 105.042 138.895 105.341 138.747 105.659L137.474 105.205C137.702 104.674 138.005 104.261 138.384 103.966C138.766 103.667 139.183 103.458 139.634 103.341C140.088 103.22 140.535 103.159 140.974 103.159C141.255 103.159 141.577 103.193 141.94 103.261C142.308 103.326 142.662 103.46 143.003 103.665C143.348 103.869 143.634 104.178 143.861 104.591C144.088 105.004 144.202 105.557 144.202 106.25V112H142.861V110.818H142.793C142.702 111.008 142.55 111.21 142.338 111.426C142.126 111.642 141.844 111.826 141.491 111.977C141.139 112.129 140.709 112.205 140.202 112.205ZM140.406 111C140.937 111 141.384 110.896 141.747 110.688C142.115 110.479 142.391 110.21 142.577 109.881C142.766 109.551 142.861 109.205 142.861 108.841V107.614C142.804 107.682 142.679 107.744 142.486 107.801C142.296 107.854 142.077 107.902 141.827 107.943C141.58 107.981 141.34 108.015 141.105 108.045C140.874 108.072 140.687 108.095 140.543 108.114C140.194 108.159 139.868 108.233 139.565 108.335C139.266 108.434 139.024 108.583 138.838 108.784C138.656 108.981 138.565 109.25 138.565 109.591C138.565 110.057 138.738 110.409 139.082 110.648C139.431 110.883 139.872 111 140.406 111ZM147.99 106.75V112H146.649V103.273H147.945V104.636H148.058C148.263 104.193 148.573 103.837 148.99 103.568C149.407 103.295 149.945 103.159 150.604 103.159C151.195 103.159 151.712 103.28 152.155 103.523C152.598 103.761 152.943 104.125 153.189 104.614C153.435 105.098 153.558 105.712 153.558 106.455V112H152.217V106.545C152.217 105.86 152.039 105.326 151.683 104.943C151.327 104.557 150.839 104.364 150.217 104.364C149.789 104.364 149.407 104.456 149.07 104.642C148.736 104.828 148.473 105.098 148.28 105.455C148.087 105.811 147.99 106.242 147.99 106.75ZM159.668 112.182C158.827 112.182 158.101 111.996 157.491 111.625C156.885 111.25 156.418 110.727 156.088 110.057C155.762 109.383 155.599 108.598 155.599 107.705C155.599 106.811 155.762 106.023 156.088 105.341C156.418 104.655 156.876 104.121 157.463 103.739C158.054 103.352 158.743 103.159 159.531 103.159C159.986 103.159 160.435 103.235 160.878 103.386C161.321 103.538 161.724 103.784 162.088 104.125C162.452 104.462 162.741 104.909 162.957 105.466C163.173 106.023 163.281 106.708 163.281 107.523V108.091H156.554V106.932H161.918C161.918 106.439 161.819 106 161.622 105.614C161.429 105.227 161.152 104.922 160.793 104.699C160.437 104.475 160.016 104.364 159.531 104.364C158.997 104.364 158.535 104.496 158.145 104.761C157.759 105.023 157.461 105.364 157.253 105.784C157.045 106.205 156.94 106.655 156.94 107.136V107.909C156.94 108.568 157.054 109.127 157.281 109.585C157.512 110.04 157.832 110.386 158.241 110.625C158.651 110.86 159.126 110.977 159.668 110.977C160.02 110.977 160.338 110.928 160.622 110.83C160.91 110.727 161.158 110.576 161.366 110.375C161.575 110.17 161.736 109.917 161.849 109.614L163.145 109.977C163.009 110.417 162.779 110.803 162.457 111.136C162.135 111.466 161.738 111.723 161.264 111.909C160.791 112.091 160.259 112.182 159.668 112.182ZM166.662 100.364V112H165.321V100.364H166.662ZM174.959 100.364V112H173.618V100.364H174.959ZM180.96 112.182C180.172 112.182 179.481 111.994 178.886 111.619C178.295 111.244 177.833 110.72 177.5 110.045C177.17 109.371 177.006 108.583 177.006 107.682C177.006 106.773 177.17 105.979 177.5 105.301C177.833 104.623 178.295 104.097 178.886 103.722C179.481 103.347 180.172 103.159 180.96 103.159C181.748 103.159 182.438 103.347 183.028 103.722C183.623 104.097 184.085 104.623 184.415 105.301C184.748 105.979 184.915 106.773 184.915 107.682C184.915 108.583 184.748 109.371 184.415 110.045C184.085 110.72 183.623 111.244 183.028 111.619C182.438 111.994 181.748 112.182 180.96 112.182ZM180.96 110.977C181.559 110.977 182.051 110.824 182.438 110.517C182.824 110.21 183.11 109.807 183.295 109.307C183.481 108.807 183.574 108.265 183.574 107.682C183.574 107.098 183.481 106.555 183.295 106.051C183.11 105.547 182.824 105.14 182.438 104.83C182.051 104.519 181.559 104.364 180.96 104.364C180.362 104.364 179.869 104.519 179.483 104.83C179.097 105.14 178.811 105.547 178.625 106.051C178.439 106.555 178.347 107.098 178.347 107.682C178.347 108.265 178.439 108.807 178.625 109.307C178.811 109.807 179.097 110.21 179.483 110.517C179.869 110.824 180.362 110.977 180.96 110.977ZM190.484 115.455C189.837 115.455 189.28 115.371 188.814 115.205C188.348 115.042 187.96 114.826 187.649 114.557C187.342 114.292 187.098 114.008 186.916 113.705L187.984 112.955C188.106 113.114 188.259 113.295 188.445 113.5C188.63 113.708 188.884 113.888 189.206 114.04C189.532 114.195 189.958 114.273 190.484 114.273C191.189 114.273 191.77 114.102 192.229 113.761C192.687 113.42 192.916 112.886 192.916 112.159V110.386H192.803C192.704 110.545 192.564 110.742 192.382 110.977C192.204 111.208 191.946 111.415 191.609 111.597C191.276 111.775 190.825 111.864 190.257 111.864C189.553 111.864 188.92 111.697 188.359 111.364C187.803 111.03 187.361 110.545 187.036 109.909C186.714 109.273 186.553 108.5 186.553 107.591C186.553 106.697 186.71 105.919 187.024 105.256C187.339 104.589 187.776 104.074 188.337 103.71C188.897 103.343 189.545 103.159 190.28 103.159C190.848 103.159 191.299 103.254 191.632 103.443C191.969 103.629 192.227 103.841 192.405 104.08C192.587 104.314 192.727 104.508 192.825 104.659H192.962V103.273H194.257V112.25C194.257 113 194.087 113.61 193.746 114.08C193.409 114.553 192.954 114.9 192.382 115.119C191.814 115.343 191.181 115.455 190.484 115.455ZM190.439 110.659C190.977 110.659 191.431 110.536 191.803 110.29C192.174 110.044 192.456 109.689 192.649 109.227C192.842 108.765 192.939 108.212 192.939 107.568C192.939 106.939 192.844 106.384 192.655 105.903C192.465 105.422 192.185 105.045 191.814 104.773C191.443 104.5 190.984 104.364 190.439 104.364C189.871 104.364 189.397 104.508 189.018 104.795C188.643 105.083 188.361 105.47 188.172 105.955C187.986 106.439 187.893 106.977 187.893 107.568C187.893 108.174 187.988 108.71 188.178 109.176C188.371 109.638 188.655 110.002 189.03 110.267C189.409 110.528 189.878 110.659 190.439 110.659ZM202.893 105.227L201.689 105.568C201.613 105.367 201.501 105.172 201.354 104.983C201.21 104.79 201.013 104.631 200.763 104.506C200.513 104.381 200.193 104.318 199.803 104.318C199.268 104.318 198.823 104.441 198.467 104.688C198.115 104.93 197.939 105.239 197.939 105.614C197.939 105.947 198.06 106.21 198.303 106.403C198.545 106.597 198.924 106.758 199.439 106.886L200.734 107.205C201.515 107.394 202.096 107.684 202.479 108.074C202.861 108.46 203.053 108.958 203.053 109.568C203.053 110.068 202.909 110.515 202.621 110.909C202.337 111.303 201.939 111.614 201.428 111.841C200.916 112.068 200.321 112.182 199.643 112.182C198.753 112.182 198.017 111.989 197.433 111.602C196.85 111.216 196.481 110.652 196.325 109.909L197.598 109.591C197.719 110.061 197.948 110.413 198.286 110.648C198.626 110.883 199.071 111 199.621 111C200.246 111 200.742 110.867 201.109 110.602C201.481 110.333 201.666 110.011 201.666 109.636C201.666 109.333 201.56 109.08 201.348 108.875C201.136 108.667 200.81 108.511 200.371 108.409L198.916 108.068C198.117 107.879 197.53 107.585 197.155 107.188C196.784 106.786 196.598 106.284 196.598 105.682C196.598 105.189 196.736 104.754 197.013 104.375C197.293 103.996 197.674 103.699 198.155 103.483C198.64 103.267 199.189 103.159 199.803 103.159C200.666 103.159 201.344 103.348 201.837 103.727C202.333 104.106 202.685 104.606 202.893 105.227ZM213.23 112.182C212.389 112.182 211.664 111.996 211.054 111.625C210.448 111.25 209.98 110.727 209.651 110.057C209.325 109.383 209.162 108.598 209.162 107.705C209.162 106.811 209.325 106.023 209.651 105.341C209.98 104.655 210.438 104.121 211.026 103.739C211.616 103.352 212.306 103.159 213.094 103.159C213.548 103.159 213.997 103.235 214.44 103.386C214.884 103.538 215.287 103.784 215.651 104.125C216.014 104.462 216.304 104.909 216.52 105.466C216.736 106.023 216.844 106.708 216.844 107.523V108.091H210.116V106.932H215.48C215.48 106.439 215.382 106 215.185 105.614C214.991 105.227 214.715 104.922 214.355 104.699C213.999 104.475 213.579 104.364 213.094 104.364C212.56 104.364 212.098 104.496 211.707 104.761C211.321 105.023 211.024 105.364 210.815 105.784C210.607 106.205 210.503 106.655 210.503 107.136V107.909C210.503 108.568 210.616 109.127 210.844 109.585C211.075 110.04 211.395 110.386 211.804 110.625C212.213 110.86 212.688 110.977 213.23 110.977C213.582 110.977 213.901 110.928 214.185 110.83C214.473 110.727 214.721 110.576 214.929 110.375C215.137 110.17 215.298 109.917 215.412 109.614L216.707 109.977C216.571 110.417 216.342 110.803 216.02 111.136C215.698 111.466 215.3 111.723 214.827 111.909C214.353 112.091 213.821 112.182 213.23 112.182ZM221.452 112.205C220.899 112.205 220.397 112.1 219.946 111.892C219.495 111.68 219.137 111.375 218.872 110.977C218.607 110.576 218.474 110.091 218.474 109.523C218.474 109.023 218.573 108.617 218.77 108.307C218.967 107.992 219.23 107.746 219.56 107.568C219.889 107.39 220.253 107.258 220.651 107.17C221.052 107.08 221.455 107.008 221.861 106.955C222.391 106.886 222.821 106.835 223.151 106.801C223.484 106.763 223.726 106.701 223.878 106.614C224.033 106.527 224.111 106.375 224.111 106.159V106.114C224.111 105.553 223.957 105.117 223.651 104.807C223.348 104.496 222.887 104.341 222.27 104.341C221.63 104.341 221.128 104.481 220.764 104.761C220.401 105.042 220.145 105.341 219.997 105.659L218.724 105.205C218.952 104.674 219.255 104.261 219.634 103.966C220.016 103.667 220.433 103.458 220.884 103.341C221.338 103.22 221.785 103.159 222.224 103.159C222.505 103.159 222.827 103.193 223.19 103.261C223.558 103.326 223.912 103.46 224.253 103.665C224.598 103.869 224.884 104.178 225.111 104.591C225.338 105.004 225.452 105.557 225.452 106.25V112H224.111V110.818H224.043C223.952 111.008 223.8 111.21 223.588 111.426C223.376 111.642 223.094 111.826 222.741 111.977C222.389 112.129 221.959 112.205 221.452 112.205ZM221.656 111C222.187 111 222.634 110.896 222.997 110.688C223.365 110.479 223.641 110.21 223.827 109.881C224.016 109.551 224.111 109.205 224.111 108.841V107.614C224.054 107.682 223.929 107.744 223.736 107.801C223.546 107.854 223.327 107.902 223.077 107.943C222.83 107.981 222.59 108.015 222.355 108.045C222.124 108.072 221.937 108.095 221.793 108.114C221.444 108.159 221.118 108.233 220.815 108.335C220.516 108.434 220.274 108.583 220.088 108.784C219.906 108.981 219.815 109.25 219.815 109.591C219.815 110.057 219.988 110.409 220.332 110.648C220.681 110.883 221.122 111 221.656 111ZM231.445 112.182C230.626 112.182 229.922 111.989 229.331 111.602C228.74 111.216 228.286 110.684 227.967 110.006C227.649 109.328 227.49 108.553 227.49 107.682C227.49 106.795 227.653 106.013 227.979 105.335C228.308 104.653 228.767 104.121 229.354 103.739C229.945 103.352 230.634 103.159 231.422 103.159C232.036 103.159 232.589 103.273 233.081 103.5C233.573 103.727 233.977 104.045 234.291 104.455C234.606 104.864 234.801 105.341 234.876 105.886H233.536C233.433 105.489 233.206 105.136 232.854 104.83C232.505 104.519 232.036 104.364 231.445 104.364C230.922 104.364 230.464 104.5 230.07 104.773C229.679 105.042 229.375 105.422 229.155 105.915C228.939 106.403 228.831 106.977 228.831 107.636C228.831 108.311 228.937 108.898 229.149 109.398C229.365 109.898 229.668 110.286 230.058 110.562C230.452 110.839 230.914 110.977 231.445 110.977C231.793 110.977 232.109 110.917 232.393 110.795C232.678 110.674 232.918 110.5 233.115 110.273C233.312 110.045 233.452 109.773 233.536 109.455H234.876C234.801 109.97 234.613 110.434 234.314 110.847C234.018 111.256 233.626 111.581 233.138 111.824C232.653 112.062 232.089 112.182 231.445 112.182ZM238.178 106.75V112H236.837V100.364H238.178V104.636H238.291C238.496 104.186 238.803 103.828 239.212 103.562C239.625 103.294 240.174 103.159 240.859 103.159C241.454 103.159 241.975 103.278 242.422 103.517C242.869 103.752 243.215 104.114 243.462 104.602C243.712 105.087 243.837 105.705 243.837 106.455V112H242.496V106.545C242.496 105.852 242.316 105.316 241.956 104.938C241.6 104.555 241.106 104.364 240.473 104.364C240.034 104.364 239.64 104.456 239.291 104.642C238.946 104.828 238.674 105.098 238.473 105.455C238.276 105.811 238.178 106.242 238.178 106.75ZM254.335 112.182C253.517 112.182 252.813 111.989 252.222 111.602C251.631 111.216 251.176 110.684 250.858 110.006C250.54 109.328 250.381 108.553 250.381 107.682C250.381 106.795 250.544 106.013 250.869 105.335C251.199 104.653 251.657 104.121 252.244 103.739C252.835 103.352 253.525 103.159 254.312 103.159C254.926 103.159 255.479 103.273 255.972 103.5C256.464 103.727 256.867 104.045 257.182 104.455C257.496 104.864 257.691 105.341 257.767 105.886H256.426C256.324 105.489 256.097 105.136 255.744 104.83C255.396 104.519 254.926 104.364 254.335 104.364C253.813 104.364 253.354 104.5 252.96 104.773C252.57 105.042 252.265 105.422 252.045 105.915C251.83 106.403 251.722 106.977 251.722 107.636C251.722 108.311 251.828 108.898 252.04 109.398C252.256 109.898 252.559 110.286 252.949 110.562C253.343 110.839 253.805 110.977 254.335 110.977C254.684 110.977 255 110.917 255.284 110.795C255.568 110.674 255.809 110.5 256.006 110.273C256.203 110.045 256.343 109.773 256.426 109.455H257.767C257.691 109.97 257.504 110.434 257.205 110.847C256.909 111.256 256.517 111.581 256.028 111.824C255.544 112.062 254.979 112.182 254.335 112.182ZM261.068 100.364V112H259.727V100.364H261.068ZM263.524 112V103.273H264.865V112H263.524ZM264.206 101.818C263.945 101.818 263.719 101.729 263.53 101.551C263.344 101.373 263.251 101.159 263.251 100.909C263.251 100.659 263.344 100.445 263.53 100.267C263.719 100.089 263.945 100 264.206 100C264.467 100 264.691 100.089 264.876 100.267C265.066 100.445 265.161 100.659 265.161 100.909C265.161 101.159 265.066 101.373 264.876 101.551C264.691 101.729 264.467 101.818 264.206 101.818ZM270.866 112.182C270.048 112.182 269.344 111.989 268.753 111.602C268.162 111.216 267.707 110.684 267.389 110.006C267.071 109.328 266.912 108.553 266.912 107.682C266.912 106.795 267.075 106.013 267.401 105.335C267.73 104.653 268.188 104.121 268.776 103.739C269.366 103.352 270.056 103.159 270.844 103.159C271.457 103.159 272.01 103.273 272.503 103.5C272.995 103.727 273.399 104.045 273.713 104.455C274.027 104.864 274.223 105.341 274.298 105.886H272.957C272.855 105.489 272.628 105.136 272.276 104.83C271.927 104.519 271.457 104.364 270.866 104.364C270.344 104.364 269.885 104.5 269.491 104.773C269.101 105.042 268.796 105.422 268.577 105.915C268.361 106.403 268.253 106.977 268.253 107.636C268.253 108.311 268.359 108.898 268.571 109.398C268.787 109.898 269.09 110.286 269.48 110.562C269.874 110.839 270.336 110.977 270.866 110.977C271.215 110.977 271.531 110.917 271.815 110.795C272.099 110.674 272.34 110.5 272.537 110.273C272.734 110.045 272.874 109.773 272.957 109.455H274.298C274.223 109.97 274.035 110.434 273.736 110.847C273.44 111.256 273.048 111.581 272.56 111.824C272.075 112.062 271.51 112.182 270.866 112.182ZM277.509 108.818L277.486 107.159H277.759L281.577 103.273H283.236L279.168 107.386H279.054L277.509 108.818ZM276.259 112V100.364H277.599V112H276.259ZM281.804 112L278.395 107.682L279.349 106.75L283.509 112H281.804ZM286.962 110.409L286.871 111.023C286.806 111.455 286.708 111.917 286.575 112.409C286.446 112.902 286.312 113.366 286.172 113.801C286.032 114.237 285.916 114.583 285.825 114.841H284.803C284.852 114.598 284.916 114.278 284.996 113.881C285.075 113.483 285.155 113.038 285.234 112.545C285.318 112.057 285.386 111.557 285.439 111.045L285.507 110.409H286.962ZM300.128 105.227L298.923 105.568C298.848 105.367 298.736 105.172 298.588 104.983C298.444 104.79 298.247 104.631 297.997 104.506C297.747 104.381 297.427 104.318 297.037 104.318C296.503 104.318 296.058 104.441 295.702 104.688C295.349 104.93 295.173 105.239 295.173 105.614C295.173 105.947 295.295 106.21 295.537 106.403C295.779 106.597 296.158 106.758 296.673 106.886L297.969 107.205C298.749 107.394 299.33 107.684 299.713 108.074C300.096 108.46 300.287 108.958 300.287 109.568C300.287 110.068 300.143 110.515 299.855 110.909C299.571 111.303 299.173 111.614 298.662 111.841C298.151 112.068 297.556 112.182 296.878 112.182C295.988 112.182 295.251 111.989 294.668 111.602C294.084 111.216 293.715 110.652 293.56 109.909L294.832 109.591C294.954 110.061 295.183 110.413 295.52 110.648C295.861 110.883 296.306 111 296.855 111C297.48 111 297.976 110.867 298.344 110.602C298.715 110.333 298.901 110.011 298.901 109.636C298.901 109.333 298.795 109.08 298.582 108.875C298.37 108.667 298.045 108.511 297.605 108.409L296.151 108.068C295.351 107.879 294.764 107.585 294.389 107.188C294.018 106.786 293.832 106.284 293.832 105.682C293.832 105.189 293.971 104.754 294.247 104.375C294.527 103.996 294.908 103.699 295.389 103.483C295.874 103.267 296.423 103.159 297.037 103.159C297.901 103.159 298.579 103.348 299.071 103.727C299.567 104.106 299.92 104.606 300.128 105.227ZM305.851 112.182C305.033 112.182 304.328 111.989 303.737 111.602C303.146 111.216 302.692 110.684 302.374 110.006C302.055 109.328 301.896 108.553 301.896 107.682C301.896 106.795 302.059 106.013 302.385 105.335C302.714 104.653 303.173 104.121 303.76 103.739C304.351 103.352 305.04 103.159 305.828 103.159C306.442 103.159 306.995 103.273 307.487 103.5C307.98 103.727 308.383 104.045 308.697 104.455C309.012 104.864 309.207 105.341 309.283 105.886H307.942C307.839 105.489 307.612 105.136 307.26 104.83C306.911 104.519 306.442 104.364 305.851 104.364C305.328 104.364 304.87 104.5 304.476 104.773C304.086 105.042 303.781 105.422 303.561 105.915C303.345 106.403 303.237 106.977 303.237 107.636C303.237 108.311 303.343 108.898 303.555 109.398C303.771 109.898 304.074 110.286 304.464 110.562C304.858 110.839 305.321 110.977 305.851 110.977C306.199 110.977 306.516 110.917 306.8 110.795C307.084 110.674 307.324 110.5 307.521 110.273C307.718 110.045 307.858 109.773 307.942 109.455H309.283C309.207 109.97 309.019 110.434 308.72 110.847C308.425 111.256 308.033 111.581 307.544 111.824C307.059 112.062 306.495 112.182 305.851 112.182ZM311.243 112V103.273H312.538V104.591H312.629C312.788 104.159 313.076 103.809 313.493 103.54C313.91 103.271 314.379 103.136 314.902 103.136C315 103.136 315.124 103.138 315.271 103.142C315.419 103.146 315.531 103.152 315.607 103.159V104.523C315.561 104.511 315.457 104.494 315.294 104.472C315.135 104.445 314.966 104.432 314.788 104.432C314.364 104.432 313.985 104.521 313.652 104.699C313.322 104.873 313.061 105.116 312.868 105.426C312.679 105.733 312.584 106.083 312.584 106.477V112H311.243ZM320.476 112.182C319.688 112.182 318.997 111.994 318.402 111.619C317.811 111.244 317.349 110.72 317.016 110.045C316.686 109.371 316.521 108.583 316.521 107.682C316.521 106.773 316.686 105.979 317.016 105.301C317.349 104.623 317.811 104.097 318.402 103.722C318.997 103.347 319.688 103.159 320.476 103.159C321.264 103.159 321.953 103.347 322.544 103.722C323.139 104.097 323.601 104.623 323.93 105.301C324.264 105.979 324.43 106.773 324.43 107.682C324.43 108.583 324.264 109.371 323.93 110.045C323.601 110.72 323.139 111.244 322.544 111.619C321.953 111.994 321.264 112.182 320.476 112.182ZM320.476 110.977C321.074 110.977 321.567 110.824 321.953 110.517C322.339 110.21 322.625 109.807 322.811 109.307C322.997 108.807 323.089 108.265 323.089 107.682C323.089 107.098 322.997 106.555 322.811 106.051C322.625 105.547 322.339 105.14 321.953 104.83C321.567 104.519 321.074 104.364 320.476 104.364C319.877 104.364 319.385 104.519 318.999 104.83C318.612 105.14 318.326 105.547 318.141 106.051C317.955 106.555 317.862 107.098 317.862 107.682C317.862 108.265 317.955 108.807 318.141 109.307C318.326 109.807 318.612 110.21 318.999 110.517C319.385 110.824 319.877 110.977 320.476 110.977ZM327.818 100.364V112H326.477V100.364H327.818ZM331.615 100.364V112H330.274V100.364H331.615ZM336.071 110.409L335.98 111.023C335.916 111.455 335.817 111.917 335.685 112.409C335.556 112.902 335.421 113.366 335.281 113.801C335.141 114.237 335.026 114.583 334.935 114.841H333.912C333.961 114.598 334.026 114.278 334.105 113.881C334.185 113.483 334.264 113.038 334.344 112.545C334.427 112.057 334.495 111.557 334.548 111.045L334.616 110.409H336.071ZM343.055 112V103.273H344.396V112H343.055ZM343.737 101.818C343.476 101.818 343.25 101.729 343.061 101.551C342.875 101.373 342.783 101.159 342.783 100.909C342.783 100.659 342.875 100.445 343.061 100.267C343.25 100.089 343.476 100 343.737 100C343.999 100 344.222 100.089 344.408 100.267C344.597 100.445 344.692 100.659 344.692 100.909C344.692 101.159 344.597 101.373 344.408 101.551C344.222 101.729 343.999 101.818 343.737 101.818ZM348.193 106.75V112H346.852V103.273H348.148V104.636H348.261C348.466 104.193 348.777 103.837 349.193 103.568C349.61 103.295 350.148 103.159 350.807 103.159C351.398 103.159 351.915 103.28 352.358 103.523C352.801 103.761 353.146 104.125 353.392 104.614C353.638 105.098 353.761 105.712 353.761 106.455V112H352.42V106.545C352.42 105.86 352.242 105.326 351.886 104.943C351.53 104.557 351.042 104.364 350.42 104.364C349.992 104.364 349.61 104.456 349.273 104.642C348.939 104.828 348.676 105.098 348.483 105.455C348.29 105.811 348.193 106.242 348.193 106.75ZM356.212 115.273V103.273H357.507V104.659H357.666C357.765 104.508 357.901 104.314 358.075 104.08C358.253 103.841 358.507 103.629 358.837 103.443C359.17 103.254 359.621 103.159 360.189 103.159C360.924 103.159 361.571 103.343 362.132 103.71C362.693 104.078 363.13 104.598 363.445 105.273C363.759 105.947 363.916 106.742 363.916 107.659C363.916 108.583 363.759 109.384 363.445 110.062C363.13 110.737 362.695 111.259 362.138 111.631C361.581 111.998 360.939 112.182 360.212 112.182C359.651 112.182 359.202 112.089 358.865 111.903C358.528 111.714 358.268 111.5 358.087 111.261C357.905 111.019 357.765 110.818 357.666 110.659H357.553V115.273H356.212ZM357.53 107.636C357.53 108.295 357.626 108.877 357.82 109.381C358.013 109.881 358.295 110.273 358.666 110.557C359.037 110.837 359.492 110.977 360.03 110.977C360.59 110.977 361.058 110.83 361.433 110.534C361.812 110.235 362.096 109.833 362.286 109.33C362.479 108.822 362.575 108.258 362.575 107.636C362.575 107.023 362.481 106.47 362.291 105.977C362.106 105.481 361.823 105.089 361.445 104.801C361.07 104.509 360.598 104.364 360.03 104.364C359.484 104.364 359.026 104.502 358.655 104.778C358.284 105.051 358.003 105.434 357.814 105.926C357.625 106.415 357.53 106.985 357.53 107.636ZM371.462 108.432V103.273H372.803V112H371.462V110.523H371.371C371.166 110.966 370.848 111.343 370.416 111.653C369.984 111.96 369.439 112.114 368.78 112.114C368.234 112.114 367.75 111.994 367.325 111.756C366.901 111.513 366.568 111.15 366.325 110.665C366.083 110.176 365.962 109.561 365.962 108.818V103.273H367.303V108.727C367.303 109.364 367.481 109.871 367.837 110.25C368.196 110.629 368.655 110.818 369.212 110.818C369.545 110.818 369.884 110.733 370.229 110.562C370.577 110.392 370.869 110.131 371.104 109.778C371.342 109.426 371.462 108.977 371.462 108.432ZM379.054 103.273V104.409H374.531V103.273H379.054ZM375.849 101.182H377.19V109.5C377.19 109.879 377.245 110.163 377.355 110.352C377.469 110.538 377.613 110.663 377.787 110.727C377.965 110.788 378.152 110.818 378.349 110.818C378.497 110.818 378.618 110.811 378.713 110.795C378.808 110.777 378.884 110.761 378.94 110.75L379.213 111.955C379.122 111.989 378.995 112.023 378.832 112.057C378.67 112.095 378.463 112.114 378.213 112.114C377.834 112.114 377.463 112.032 377.099 111.869C376.74 111.706 376.44 111.458 376.202 111.125C375.967 110.792 375.849 110.371 375.849 109.864V101.182ZM383.071 110.409L382.98 111.023C382.916 111.455 382.817 111.917 382.685 112.409C382.556 112.902 382.421 113.366 382.281 113.801C382.141 114.237 382.026 114.583 381.935 114.841H380.912C380.961 114.598 381.026 114.278 381.105 113.881C381.185 113.483 381.264 113.038 381.344 112.545C381.427 112.057 381.495 111.557 381.548 111.045L381.616 110.409H383.071ZM392.624 112.205C392.071 112.205 391.569 112.1 391.118 111.892C390.667 111.68 390.309 111.375 390.044 110.977C389.779 110.576 389.646 110.091 389.646 109.523C389.646 109.023 389.745 108.617 389.942 108.307C390.139 107.992 390.402 107.746 390.732 107.568C391.061 107.39 391.425 107.258 391.822 107.17C392.224 107.08 392.627 107.008 393.033 106.955C393.563 106.886 393.993 106.835 394.322 106.801C394.656 106.763 394.898 106.701 395.05 106.614C395.205 106.527 395.283 106.375 395.283 106.159V106.114C395.283 105.553 395.129 105.117 394.822 104.807C394.519 104.496 394.059 104.341 393.442 104.341C392.802 104.341 392.3 104.481 391.936 104.761C391.572 105.042 391.317 105.341 391.169 105.659L389.896 105.205C390.124 104.674 390.427 104.261 390.805 103.966C391.188 103.667 391.605 103.458 392.055 103.341C392.51 103.22 392.957 103.159 393.396 103.159C393.677 103.159 393.999 103.193 394.362 103.261C394.73 103.326 395.084 103.46 395.425 103.665C395.769 103.869 396.055 104.178 396.283 104.591C396.51 105.004 396.624 105.557 396.624 106.25V112H395.283V110.818H395.214C395.124 111.008 394.972 111.21 394.76 111.426C394.548 111.642 394.266 111.826 393.913 111.977C393.561 112.129 393.131 112.205 392.624 112.205ZM392.828 111C393.358 111 393.805 110.896 394.169 110.688C394.536 110.479 394.813 110.21 394.999 109.881C395.188 109.551 395.283 109.205 395.283 108.841V107.614C395.226 107.682 395.101 107.744 394.908 107.801C394.718 107.854 394.499 107.902 394.249 107.943C394.002 107.981 393.762 108.015 393.527 108.045C393.296 108.072 393.108 108.095 392.964 108.114C392.616 108.159 392.29 108.233 391.987 108.335C391.688 108.434 391.446 108.583 391.26 108.784C391.078 108.981 390.987 109.25 390.987 109.591C390.987 110.057 391.16 110.409 391.504 110.648C391.853 110.883 392.294 111 392.828 111ZM400.412 106.75V112H399.071V103.273H400.366V104.636H400.48C400.685 104.193 400.995 103.837 401.412 103.568C401.829 103.295 402.366 103.159 403.026 103.159C403.616 103.159 404.134 103.28 404.577 103.523C405.02 103.761 405.365 104.125 405.611 104.614C405.857 105.098 405.98 105.712 405.98 106.455V112H404.639V106.545C404.639 105.86 404.461 105.326 404.105 104.943C403.749 104.557 403.26 104.364 402.639 104.364C402.211 104.364 401.829 104.456 401.491 104.642C401.158 104.828 400.895 105.098 400.702 105.455C400.509 105.811 400.412 106.242 400.412 106.75ZM411.726 112.182C410.999 112.182 410.357 111.998 409.8 111.631C409.243 111.259 408.807 110.737 408.493 110.062C408.179 109.384 408.021 108.583 408.021 107.659C408.021 106.742 408.179 105.947 408.493 105.273C408.807 104.598 409.245 104.078 409.805 103.71C410.366 103.343 411.014 103.159 411.749 103.159C412.317 103.159 412.766 103.254 413.095 103.443C413.429 103.629 413.682 103.841 413.857 104.08C414.035 104.314 414.173 104.508 414.271 104.659H414.385V100.364H415.726V112H414.43V110.659H414.271C414.173 110.818 414.033 111.019 413.851 111.261C413.669 111.5 413.41 111.714 413.072 111.903C412.735 112.089 412.286 112.182 411.726 112.182ZM411.908 110.977C412.446 110.977 412.9 110.837 413.271 110.557C413.643 110.273 413.925 109.881 414.118 109.381C414.311 108.877 414.408 108.295 414.408 107.636C414.408 106.985 414.313 106.415 414.124 105.926C413.934 105.434 413.654 105.051 413.283 104.778C412.911 104.502 412.453 104.364 411.908 104.364C411.339 104.364 410.866 104.509 410.487 104.801C410.112 105.089 409.83 105.481 409.641 105.977C409.455 106.47 409.362 107.023 409.362 107.636C409.362 108.258 409.457 108.822 409.646 109.33C409.839 109.833 410.124 110.235 410.499 110.534C410.877 110.83 411.347 110.977 411.908 110.977ZM424.209 106.75V112H422.868V103.273H424.163V104.636H424.277C424.482 104.193 424.792 103.837 425.209 103.568C425.625 103.295 426.163 103.159 426.822 103.159C427.413 103.159 427.93 103.28 428.374 103.523C428.817 103.761 429.161 104.125 429.408 104.614C429.654 105.098 429.777 105.712 429.777 106.455V112H428.436V106.545C428.436 105.86 428.258 105.326 427.902 104.943C427.546 104.557 427.057 104.364 426.436 104.364C426.008 104.364 425.625 104.456 425.288 104.642C424.955 104.828 424.692 105.098 424.499 105.455C424.305 105.811 424.209 106.242 424.209 106.75ZM434.795 112.205C434.242 112.205 433.741 112.1 433.29 111.892C432.839 111.68 432.481 111.375 432.216 110.977C431.951 110.576 431.818 110.091 431.818 109.523C431.818 109.023 431.917 108.617 432.114 108.307C432.311 107.992 432.574 107.746 432.903 107.568C433.233 107.39 433.597 107.258 433.994 107.17C434.396 107.08 434.799 107.008 435.205 106.955C435.735 106.886 436.165 106.835 436.494 106.801C436.828 106.763 437.07 106.701 437.222 106.614C437.377 106.527 437.455 106.375 437.455 106.159V106.114C437.455 105.553 437.301 105.117 436.994 104.807C436.691 104.496 436.231 104.341 435.614 104.341C434.973 104.341 434.472 104.481 434.108 104.761C433.744 105.042 433.489 105.341 433.341 105.659L432.068 105.205C432.295 104.674 432.598 104.261 432.977 103.966C433.36 103.667 433.777 103.458 434.227 103.341C434.682 103.22 435.129 103.159 435.568 103.159C435.848 103.159 436.17 103.193 436.534 103.261C436.902 103.326 437.256 103.46 437.597 103.665C437.941 103.869 438.227 104.178 438.455 104.591C438.682 105.004 438.795 105.557 438.795 106.25V112H437.455V110.818H437.386C437.295 111.008 437.144 111.21 436.932 111.426C436.72 111.642 436.438 111.826 436.085 111.977C435.733 112.129 435.303 112.205 434.795 112.205ZM435 111C435.53 111 435.977 110.896 436.341 110.688C436.708 110.479 436.985 110.21 437.17 109.881C437.36 109.551 437.455 109.205 437.455 108.841V107.614C437.398 107.682 437.273 107.744 437.08 107.801C436.89 107.854 436.67 107.902 436.42 107.943C436.174 107.981 435.934 108.015 435.699 108.045C435.468 108.072 435.28 108.095 435.136 108.114C434.788 108.159 434.462 108.233 434.159 108.335C433.86 108.434 433.617 108.583 433.432 108.784C433.25 108.981 433.159 109.25 433.159 109.591C433.159 110.057 433.331 110.409 433.676 110.648C434.025 110.883 434.466 111 435 111ZM448.067 103.273L444.839 112H443.476L440.249 103.273H441.703L444.112 110.227H444.203L446.612 103.273H448.067ZM449.837 112V103.273H451.178V112H449.837ZM450.518 101.818C450.257 101.818 450.032 101.729 449.842 101.551C449.657 101.373 449.564 101.159 449.564 100.909C449.564 100.659 449.657 100.445 449.842 100.267C450.032 100.089 450.257 100 450.518 100C450.78 100 451.003 100.089 451.189 100.267C451.378 100.445 451.473 100.659 451.473 100.909C451.473 101.159 451.378 101.373 451.189 101.551C451.003 101.729 450.78 101.818 450.518 101.818ZM457.156 115.455C456.509 115.455 455.952 115.371 455.486 115.205C455.02 115.042 454.632 114.826 454.321 114.557C454.014 114.292 453.77 114.008 453.588 113.705L454.656 112.955C454.777 113.114 454.931 113.295 455.116 113.5C455.302 113.708 455.556 113.888 455.878 114.04C456.204 114.195 456.63 114.273 457.156 114.273C457.861 114.273 458.442 114.102 458.901 113.761C459.359 113.42 459.588 112.886 459.588 112.159V110.386H459.474C459.376 110.545 459.236 110.742 459.054 110.977C458.876 111.208 458.618 111.415 458.281 111.597C457.948 111.775 457.497 111.864 456.929 111.864C456.224 111.864 455.592 111.697 455.031 111.364C454.474 111.03 454.033 110.545 453.707 109.909C453.385 109.273 453.224 108.5 453.224 107.591C453.224 106.697 453.382 105.919 453.696 105.256C454.01 104.589 454.448 104.074 455.009 103.71C455.569 103.343 456.217 103.159 456.952 103.159C457.52 103.159 457.971 103.254 458.304 103.443C458.641 103.629 458.899 103.841 459.077 104.08C459.259 104.314 459.399 104.508 459.497 104.659H459.634V103.273H460.929V112.25C460.929 113 460.759 113.61 460.418 114.08C460.08 114.553 459.626 114.9 459.054 115.119C458.486 115.343 457.853 115.455 457.156 115.455ZM457.111 110.659C457.649 110.659 458.103 110.536 458.474 110.29C458.846 110.044 459.128 109.689 459.321 109.227C459.514 108.765 459.611 108.212 459.611 107.568C459.611 106.939 459.516 106.384 459.327 105.903C459.137 105.422 458.857 105.045 458.486 104.773C458.115 104.5 457.656 104.364 457.111 104.364C456.543 104.364 456.069 104.508 455.69 104.795C455.315 105.083 455.033 105.47 454.844 105.955C454.658 106.439 454.565 106.977 454.565 107.568C454.565 108.174 454.66 108.71 454.849 109.176C455.043 109.638 455.327 110.002 455.702 110.267C456.08 110.528 456.55 110.659 457.111 110.659ZM465.952 112.205C465.399 112.205 464.897 112.1 464.446 111.892C463.995 111.68 463.637 111.375 463.372 110.977C463.107 110.576 462.974 110.091 462.974 109.523C462.974 109.023 463.073 108.617 463.27 108.307C463.467 107.992 463.73 107.746 464.06 107.568C464.389 107.39 464.753 107.258 465.151 107.17C465.552 107.08 465.955 107.008 466.361 106.955C466.891 106.886 467.321 106.835 467.651 106.801C467.984 106.763 468.226 106.701 468.378 106.614C468.533 106.527 468.611 106.375 468.611 106.159V106.114C468.611 105.553 468.457 105.117 468.151 104.807C467.848 104.496 467.387 104.341 466.77 104.341C466.13 104.341 465.628 104.481 465.264 104.761C464.901 105.042 464.645 105.341 464.497 105.659L463.224 105.205C463.452 104.674 463.755 104.261 464.134 103.966C464.516 103.667 464.933 103.458 465.384 103.341C465.838 103.22 466.285 103.159 466.724 103.159C467.005 103.159 467.327 103.193 467.69 103.261C468.058 103.326 468.412 103.46 468.753 103.665C469.098 103.869 469.384 104.178 469.611 104.591C469.838 105.004 469.952 105.557 469.952 106.25V112H468.611V110.818H468.543C468.452 111.008 468.3 111.21 468.088 111.426C467.876 111.642 467.594 111.826 467.241 111.977C466.889 112.129 466.459 112.205 465.952 112.205ZM466.156 111C466.687 111 467.134 110.896 467.497 110.688C467.865 110.479 468.141 110.21 468.327 109.881C468.516 109.551 468.611 109.205 468.611 108.841V107.614C468.554 107.682 468.429 107.744 468.236 107.801C468.046 107.854 467.827 107.902 467.577 107.943C467.33 107.981 467.09 108.015 466.855 108.045C466.624 108.072 466.437 108.095 466.293 108.114C465.944 108.159 465.618 108.233 465.315 108.335C465.016 108.434 464.774 108.583 464.588 108.784C464.406 108.981 464.315 109.25 464.315 109.591C464.315 110.057 464.488 110.409 464.832 110.648C465.181 110.883 465.622 111 466.156 111ZM476.195 103.273V104.409H471.672V103.273H476.195ZM472.99 101.182H474.331V109.5C474.331 109.879 474.386 110.163 474.496 110.352C474.609 110.538 474.753 110.663 474.928 110.727C475.106 110.788 475.293 110.818 475.49 110.818C475.638 110.818 475.759 110.811 475.854 110.795C475.948 110.777 476.024 110.761 476.081 110.75L476.354 111.955C476.263 111.989 476.136 112.023 475.973 112.057C475.81 112.095 475.604 112.114 475.354 112.114C474.975 112.114 474.604 112.032 474.24 111.869C473.88 111.706 473.581 111.458 473.342 111.125C473.107 110.792 472.99 110.371 472.99 109.864V101.182ZM478.212 112V103.273H479.553V112H478.212ZM478.893 101.818C478.632 101.818 478.407 101.729 478.217 101.551C478.032 101.373 477.939 101.159 477.939 100.909C477.939 100.659 478.032 100.445 478.217 100.267C478.407 100.089 478.632 100 478.893 100C479.155 100 479.378 100.089 479.564 100.267C479.753 100.445 479.848 100.659 479.848 100.909C479.848 101.159 479.753 101.373 479.564 101.551C479.378 101.729 479.155 101.818 478.893 101.818ZM485.554 112.182C484.766 112.182 484.075 111.994 483.48 111.619C482.889 111.244 482.427 110.72 482.094 110.045C481.764 109.371 481.599 108.583 481.599 107.682C481.599 106.773 481.764 105.979 482.094 105.301C482.427 104.623 482.889 104.097 483.48 103.722C484.075 103.347 484.766 103.159 485.554 103.159C486.342 103.159 487.031 103.347 487.622 103.722C488.217 104.097 488.679 104.623 489.009 105.301C489.342 105.979 489.509 106.773 489.509 107.682C489.509 108.583 489.342 109.371 489.009 110.045C488.679 110.72 488.217 111.244 487.622 111.619C487.031 111.994 486.342 112.182 485.554 112.182ZM485.554 110.977C486.152 110.977 486.645 110.824 487.031 110.517C487.418 110.21 487.704 109.807 487.889 109.307C488.075 108.807 488.168 108.265 488.168 107.682C488.168 107.098 488.075 106.555 487.889 106.051C487.704 105.547 487.418 105.14 487.031 104.83C486.645 104.519 486.152 104.364 485.554 104.364C484.955 104.364 484.463 104.519 484.077 104.83C483.69 105.14 483.404 105.547 483.219 106.051C483.033 106.555 482.94 107.098 482.94 107.682C482.94 108.265 483.033 108.807 483.219 109.307C483.404 109.807 483.69 110.21 484.077 110.517C484.463 110.824 484.955 110.977 485.554 110.977ZM492.896 106.75V112H491.555V103.273H492.851V104.636H492.964C493.169 104.193 493.48 103.837 493.896 103.568C494.313 103.295 494.851 103.159 495.51 103.159C496.101 103.159 496.618 103.28 497.061 103.523C497.504 103.761 497.849 104.125 498.095 104.614C498.341 105.098 498.464 105.712 498.464 106.455V112H497.124V106.545C497.124 105.86 496.946 105.326 496.589 104.943C496.233 104.557 495.745 104.364 495.124 104.364C494.696 104.364 494.313 104.456 493.976 104.642C493.643 104.828 493.379 105.098 493.186 105.455C492.993 105.811 492.896 106.242 492.896 106.75ZM39.4091 131.227L38.2045 131.568C38.1288 131.367 38.017 131.172 37.8693 130.983C37.7254 130.79 37.5284 130.631 37.2784 130.506C37.0284 130.381 36.7083 130.318 36.3182 130.318C35.7841 130.318 35.339 130.441 34.983 130.688C34.6307 130.93 34.4545 131.239 34.4545 131.614C34.4545 131.947 34.5758 132.21 34.8182 132.403C35.0606 132.597 35.4394 132.758 35.9545 132.886L37.25 133.205C38.0303 133.394 38.6117 133.684 38.9943 134.074C39.3769 134.46 39.5682 134.958 39.5682 135.568C39.5682 136.068 39.4242 136.515 39.1364 136.909C38.8523 137.303 38.4545 137.614 37.9432 137.841C37.4318 138.068 36.8371 138.182 36.1591 138.182C35.2689 138.182 34.5322 137.989 33.9489 137.602C33.3655 137.216 32.9962 136.652 32.8409 135.909L34.1136 135.591C34.2348 136.061 34.464 136.413 34.8011 136.648C35.142 136.883 35.5871 137 36.1364 137C36.7614 137 37.2576 136.867 37.625 136.602C37.9962 136.333 38.1818 136.011 38.1818 135.636C38.1818 135.333 38.0758 135.08 37.8636 134.875C37.6515 134.667 37.3258 134.511 36.8864 134.409L35.4318 134.068C34.6326 133.879 34.0455 133.585 33.6705 133.188C33.2992 132.786 33.1136 132.284 33.1136 131.682C33.1136 131.189 33.2519 130.754 33.5284 130.375C33.8087 129.996 34.1894 129.699 34.6705 129.483C35.1553 129.267 35.7045 129.159 36.3182 129.159C37.1818 129.159 37.8598 129.348 38.3523 129.727C38.8485 130.106 39.2008 130.606 39.4091 131.227ZM45.3821 129.273V130.409H40.8594V129.273H45.3821ZM42.1776 127.182H43.5185V135.5C43.5185 135.879 43.5734 136.163 43.6832 136.352C43.7969 136.538 43.9408 136.663 44.1151 136.727C44.2931 136.788 44.4806 136.818 44.6776 136.818C44.8253 136.818 44.9465 136.811 45.0412 136.795C45.1359 136.777 45.2116 136.761 45.2685 136.75L45.5412 137.955C45.4503 137.989 45.3234 138.023 45.1605 138.057C44.9976 138.095 44.7912 138.114 44.5412 138.114C44.1624 138.114 43.7912 138.032 43.4276 137.869C43.0677 137.706 42.7685 137.458 42.5298 137.125C42.295 136.792 42.1776 136.371 42.1776 135.864V127.182ZM50.9645 138.182C50.1236 138.182 49.3982 137.996 48.7884 137.625C48.1823 137.25 47.7145 136.727 47.3849 136.057C47.0592 135.383 46.8963 134.598 46.8963 133.705C46.8963 132.811 47.0592 132.023 47.3849 131.341C47.7145 130.655 48.1728 130.121 48.7599 129.739C49.3509 129.352 50.0402 129.159 50.8281 129.159C51.2827 129.159 51.7315 129.235 52.1747 129.386C52.6179 129.538 53.0213 129.784 53.3849 130.125C53.7486 130.462 54.0384 130.909 54.2543 131.466C54.4702 132.023 54.5781 132.708 54.5781 133.523V134.091H47.8509V132.932H53.2145C53.2145 132.439 53.116 132 52.919 131.614C52.7259 131.227 52.4493 130.922 52.0895 130.699C51.7334 130.475 51.313 130.364 50.8281 130.364C50.294 130.364 49.8319 130.496 49.4418 130.761C49.0554 131.023 48.758 131.364 48.5497 131.784C48.3414 132.205 48.2372 132.655 48.2372 133.136V133.909C48.2372 134.568 48.3509 135.127 48.5781 135.585C48.8092 136.04 49.1293 136.386 49.5384 136.625C49.9474 136.86 50.4228 136.977 50.9645 136.977C51.3168 136.977 51.6349 136.928 51.919 136.83C52.2069 136.727 52.455 136.576 52.6634 136.375C52.8717 136.17 53.0327 135.917 53.1463 135.614L54.4418 135.977C54.3054 136.417 54.0762 136.803 53.7543 137.136C53.4323 137.466 53.0346 137.723 52.5611 137.909C52.0876 138.091 51.5554 138.182 50.9645 138.182ZM56.6179 141.273V129.273H57.9134V130.659H58.0724C58.1709 130.508 58.3073 130.314 58.4815 130.08C58.6596 129.841 58.9134 129.629 59.2429 129.443C59.5762 129.254 60.027 129.159 60.5952 129.159C61.33 129.159 61.9777 129.343 62.5384 129.71C63.099 130.078 63.5365 130.598 63.8509 131.273C64.1652 131.947 64.3224 132.742 64.3224 133.659C64.3224 134.583 64.1652 135.384 63.8509 136.062C63.5365 136.737 63.1009 137.259 62.544 137.631C61.9872 137.998 61.3452 138.182 60.6179 138.182C60.0573 138.182 59.6084 138.089 59.2713 137.903C58.9342 137.714 58.6747 137.5 58.4929 137.261C58.3111 137.019 58.1709 136.818 58.0724 136.659H57.9588V141.273H56.6179ZM57.9361 133.636C57.9361 134.295 58.0327 134.877 58.2259 135.381C58.419 135.881 58.7012 136.273 59.0724 136.557C59.4437 136.837 59.8982 136.977 60.4361 136.977C60.9967 136.977 61.4645 136.83 61.8395 136.534C62.2183 136.235 62.5024 135.833 62.6918 135.33C62.8849 134.822 62.9815 134.258 62.9815 133.636C62.9815 133.023 62.8868 132.47 62.6974 131.977C62.5118 131.481 62.2296 131.089 61.8509 130.801C61.4759 130.509 61.0043 130.364 60.4361 130.364C59.8906 130.364 59.4323 130.502 59.0611 130.778C58.6899 131.051 58.4096 131.434 58.2202 131.926C58.0308 132.415 57.9361 132.985 57.9361 133.636ZM72.2088 126.364V138H70.8679V126.364H72.2088ZM78.3239 138.182C77.483 138.182 76.7576 137.996 76.1477 137.625C75.5417 137.25 75.0739 136.727 74.7443 136.057C74.4186 135.383 74.2557 134.598 74.2557 133.705C74.2557 132.811 74.4186 132.023 74.7443 131.341C75.0739 130.655 75.5322 130.121 76.1193 129.739C76.7102 129.352 77.3996 129.159 78.1875 129.159C78.642 129.159 79.0909 129.235 79.5341 129.386C79.9773 129.538 80.3807 129.784 80.7443 130.125C81.108 130.462 81.3977 130.909 81.6136 131.466C81.8295 132.023 81.9375 132.708 81.9375 133.523V134.091H75.2102V132.932H80.5739C80.5739 132.439 80.4754 132 80.2784 131.614C80.0852 131.227 79.8087 130.922 79.4489 130.699C79.0928 130.475 78.6723 130.364 78.1875 130.364C77.6534 130.364 77.1913 130.496 76.8011 130.761C76.4148 131.023 76.1174 131.364 75.9091 131.784C75.7008 132.205 75.5966 132.655 75.5966 133.136V133.909C75.5966 134.568 75.7102 135.127 75.9375 135.585C76.1686 136.04 76.4886 136.386 76.8977 136.625C77.3068 136.86 77.7822 136.977 78.3239 136.977C78.6761 136.977 78.9943 136.928 79.2784 136.83C79.5663 136.727 79.8144 136.576 80.0227 136.375C80.2311 136.17 80.392 135.917 80.5057 135.614L81.8011 135.977C81.6648 136.417 81.4356 136.803 81.1136 137.136C80.7917 137.466 80.3939 137.723 79.9205 137.909C79.447 138.091 78.9148 138.182 78.3239 138.182ZM86.5455 138.205C85.9924 138.205 85.4905 138.1 85.0398 137.892C84.589 137.68 84.2311 137.375 83.9659 136.977C83.7008 136.576 83.5682 136.091 83.5682 135.523C83.5682 135.023 83.6667 134.617 83.8636 134.307C84.0606 133.992 84.3239 133.746 84.6534 133.568C84.983 133.39 85.3466 133.258 85.7443 133.17C86.1458 133.08 86.5492 133.008 86.9545 132.955C87.4848 132.886 87.9148 132.835 88.2443 132.801C88.5777 132.763 88.8201 132.701 88.9716 132.614C89.1269 132.527 89.2045 132.375 89.2045 132.159V132.114C89.2045 131.553 89.0511 131.117 88.7443 130.807C88.4413 130.496 87.9811 130.341 87.3636 130.341C86.7235 130.341 86.2216 130.481 85.858 130.761C85.4943 131.042 85.2386 131.341 85.0909 131.659L83.8182 131.205C84.0455 130.674 84.3485 130.261 84.7273 129.966C85.1098 129.667 85.5265 129.458 85.9773 129.341C86.4318 129.22 86.8788 129.159 87.3182 129.159C87.5985 129.159 87.9205 129.193 88.2841 129.261C88.6515 129.326 89.0057 129.46 89.3466 129.665C89.6913 129.869 89.9773 130.178 90.2045 130.591C90.4318 131.004 90.5455 131.557 90.5455 132.25V138H89.2045V136.818H89.1364C89.0455 137.008 88.8939 137.21 88.6818 137.426C88.4697 137.642 88.1875 137.826 87.8352 137.977C87.483 138.129 87.053 138.205 86.5455 138.205ZM86.75 137C87.2803 137 87.7273 136.896 88.0909 136.688C88.4583 136.479 88.7348 136.21 88.9205 135.881C89.1098 135.551 89.2045 135.205 89.2045 134.841V133.614C89.1477 133.682 89.0227 133.744 88.8295 133.801C88.6402 133.854 88.4205 133.902 88.1705 133.943C87.9242 133.981 87.6837 134.015 87.4489 134.045C87.2178 134.072 87.0303 134.095 86.8864 134.114C86.5379 134.159 86.2121 134.233 85.9091 134.335C85.6098 134.434 85.3674 134.583 85.1818 134.784C85 134.981 84.9091 135.25 84.9091 135.591C84.9091 136.057 85.0814 136.409 85.4261 136.648C85.7746 136.883 86.2159 137 86.75 137ZM96.2884 138.182C95.5611 138.182 94.919 137.998 94.3622 137.631C93.8054 137.259 93.3698 136.737 93.0554 136.062C92.741 135.384 92.5838 134.583 92.5838 133.659C92.5838 132.742 92.741 131.947 93.0554 131.273C93.3698 130.598 93.8073 130.078 94.3679 129.71C94.9285 129.343 95.5762 129.159 96.3111 129.159C96.8793 129.159 97.3281 129.254 97.6577 129.443C97.991 129.629 98.2448 129.841 98.419 130.08C98.5971 130.314 98.7353 130.508 98.8338 130.659H98.9474V126.364H100.288V138H98.9929V136.659H98.8338C98.7353 136.818 98.5952 137.019 98.4134 137.261C98.2315 137.5 97.9721 137.714 97.6349 137.903C97.2978 138.089 96.849 138.182 96.2884 138.182ZM96.4702 136.977C97.008 136.977 97.4626 136.837 97.8338 136.557C98.205 136.273 98.4872 135.881 98.6804 135.381C98.8736 134.877 98.9702 134.295 98.9702 133.636C98.9702 132.985 98.8755 132.415 98.6861 131.926C98.4967 131.434 98.2164 131.051 97.8452 130.778C97.474 130.502 97.0156 130.364 96.4702 130.364C95.902 130.364 95.4285 130.509 95.0497 130.801C94.6747 131.089 94.3925 131.481 94.2031 131.977C94.0175 132.47 93.9247 133.023 93.9247 133.636C93.9247 134.258 94.0194 134.822 94.2088 135.33C94.402 135.833 94.6861 136.235 95.0611 136.534C95.4399 136.83 95.9096 136.977 96.4702 136.977ZM102.93 138V129.273H104.271V138H102.93ZM103.612 127.818C103.351 127.818 103.125 127.729 102.936 127.551C102.75 127.373 102.658 127.159 102.658 126.909C102.658 126.659 102.75 126.445 102.936 126.267C103.125 126.089 103.351 126 103.612 126C103.874 126 104.097 126.089 104.283 126.267C104.472 126.445 104.567 126.659 104.567 126.909C104.567 127.159 104.472 127.373 104.283 127.551C104.097 127.729 103.874 127.818 103.612 127.818ZM108.068 132.75V138H106.727V129.273H108.023V130.636H108.136C108.341 130.193 108.652 129.837 109.068 129.568C109.485 129.295 110.023 129.159 110.682 129.159C111.273 129.159 111.79 129.28 112.233 129.523C112.676 129.761 113.021 130.125 113.267 130.614C113.513 131.098 113.636 131.712 113.636 132.455V138H112.295V132.545C112.295 131.86 112.117 131.326 111.761 130.943C111.405 130.557 110.917 130.364 110.295 130.364C109.867 130.364 109.485 130.456 109.148 130.642C108.814 130.828 108.551 131.098 108.358 131.455C108.165 131.811 108.068 132.242 108.068 132.75ZM119.609 141.455C118.962 141.455 118.405 141.371 117.939 141.205C117.473 141.042 117.085 140.826 116.774 140.557C116.467 140.292 116.223 140.008 116.041 139.705L117.109 138.955C117.231 139.114 117.384 139.295 117.57 139.5C117.755 139.708 118.009 139.888 118.331 140.04C118.657 140.195 119.083 140.273 119.609 140.273C120.314 140.273 120.895 140.102 121.354 139.761C121.812 139.42 122.041 138.886 122.041 138.159V136.386H121.928C121.829 136.545 121.689 136.742 121.507 136.977C121.329 137.208 121.071 137.415 120.734 137.597C120.401 137.775 119.95 137.864 119.382 137.864C118.678 137.864 118.045 137.697 117.484 137.364C116.928 137.03 116.486 136.545 116.161 135.909C115.839 135.273 115.678 134.5 115.678 133.591C115.678 132.697 115.835 131.919 116.149 131.256C116.464 130.589 116.901 130.074 117.462 129.71C118.022 129.343 118.67 129.159 119.405 129.159C119.973 129.159 120.424 129.254 120.757 129.443C121.094 129.629 121.352 129.841 121.53 130.08C121.712 130.314 121.852 130.508 121.95 130.659H122.087V129.273H123.382V138.25C123.382 139 123.212 139.61 122.871 140.08C122.534 140.553 122.079 140.9 121.507 141.119C120.939 141.343 120.306 141.455 119.609 141.455ZM119.564 136.659C120.102 136.659 120.556 136.536 120.928 136.29C121.299 136.044 121.581 135.689 121.774 135.227C121.967 134.765 122.064 134.212 122.064 133.568C122.064 132.939 121.969 132.384 121.78 131.903C121.59 131.422 121.31 131.045 120.939 130.773C120.568 130.5 120.109 130.364 119.564 130.364C118.996 130.364 118.522 130.508 118.143 130.795C117.768 131.083 117.486 131.47 117.297 131.955C117.111 132.439 117.018 132.977 117.018 133.568C117.018 134.174 117.113 134.71 117.303 135.176C117.496 135.638 117.78 136.002 118.155 136.267C118.534 136.528 119.003 136.659 119.564 136.659ZM135.837 134.432V129.273H137.178V138H135.837V136.523H135.746C135.541 136.966 135.223 137.343 134.791 137.653C134.359 137.96 133.814 138.114 133.155 138.114C132.609 138.114 132.125 137.994 131.7 137.756C131.276 137.513 130.943 137.15 130.7 136.665C130.458 136.176 130.337 135.561 130.337 134.818V129.273H131.678V134.727C131.678 135.364 131.856 135.871 132.212 136.25C132.571 136.629 133.03 136.818 133.587 136.818C133.92 136.818 134.259 136.733 134.604 136.562C134.952 136.392 135.244 136.131 135.479 135.778C135.717 135.426 135.837 134.977 135.837 134.432ZM139.634 141.273V129.273H140.929V130.659H141.088C141.187 130.508 141.323 130.314 141.497 130.08C141.675 129.841 141.929 129.629 142.259 129.443C142.592 129.254 143.043 129.159 143.611 129.159C144.346 129.159 144.993 129.343 145.554 129.71C146.115 130.078 146.552 130.598 146.866 131.273C147.181 131.947 147.338 132.742 147.338 133.659C147.338 134.583 147.181 135.384 146.866 136.062C146.552 136.737 146.116 137.259 145.56 137.631C145.003 137.998 144.361 138.182 143.634 138.182C143.073 138.182 142.624 138.089 142.287 137.903C141.95 137.714 141.69 137.5 141.509 137.261C141.327 137.019 141.187 136.818 141.088 136.659H140.974V141.273H139.634ZM140.952 133.636C140.952 134.295 141.048 134.877 141.241 135.381C141.435 135.881 141.717 136.273 142.088 136.557C142.459 136.837 142.914 136.977 143.452 136.977C144.012 136.977 144.48 136.83 144.855 136.534C145.234 136.235 145.518 135.833 145.707 135.33C145.901 134.822 145.997 134.258 145.997 133.636C145.997 133.023 145.902 132.47 145.713 131.977C145.527 131.481 145.245 131.089 144.866 130.801C144.491 130.509 144.02 130.364 143.452 130.364C142.906 130.364 142.448 130.502 142.077 130.778C141.705 131.051 141.425 131.434 141.236 131.926C141.046 132.415 140.952 132.985 140.952 133.636ZM157.679 129.273V130.409H153.156V129.273H157.679ZM154.474 127.182H155.815V135.5C155.815 135.879 155.87 136.163 155.98 136.352C156.094 136.538 156.238 136.663 156.412 136.727C156.59 136.788 156.777 136.818 156.974 136.818C157.122 136.818 157.243 136.811 157.338 136.795C157.433 136.777 157.509 136.761 157.565 136.75L157.838 137.955C157.747 137.989 157.62 138.023 157.457 138.057C157.295 138.095 157.088 138.114 156.838 138.114C156.459 138.114 156.088 138.032 155.724 137.869C155.365 137.706 155.065 137.458 154.827 137.125C154.592 136.792 154.474 136.371 154.474 135.864V127.182ZM163.148 138.182C162.36 138.182 161.669 137.994 161.074 137.619C160.483 137.244 160.021 136.72 159.688 136.045C159.358 135.371 159.193 134.583 159.193 133.682C159.193 132.773 159.358 131.979 159.688 131.301C160.021 130.623 160.483 130.097 161.074 129.722C161.669 129.347 162.36 129.159 163.148 129.159C163.936 129.159 164.625 129.347 165.216 129.722C165.811 130.097 166.273 130.623 166.602 131.301C166.936 131.979 167.102 132.773 167.102 133.682C167.102 134.583 166.936 135.371 166.602 136.045C166.273 136.72 165.811 137.244 165.216 137.619C164.625 137.994 163.936 138.182 163.148 138.182ZM163.148 136.977C163.746 136.977 164.239 136.824 164.625 136.517C165.011 136.21 165.297 135.807 165.483 135.307C165.669 134.807 165.761 134.265 165.761 133.682C165.761 133.098 165.669 132.555 165.483 132.051C165.297 131.547 165.011 131.14 164.625 130.83C164.239 130.519 163.746 130.364 163.148 130.364C162.549 130.364 162.057 130.519 161.67 130.83C161.284 131.14 160.998 131.547 160.812 132.051C160.627 132.555 160.534 133.098 160.534 133.682C160.534 134.265 160.627 134.807 160.812 135.307C160.998 135.807 161.284 136.21 161.67 136.517C162.057 136.824 162.549 136.977 163.148 136.977ZM176.217 138.205C175.664 138.205 175.162 138.1 174.712 137.892C174.261 137.68 173.903 137.375 173.638 136.977C173.373 136.576 173.24 136.091 173.24 135.523C173.24 135.023 173.339 134.617 173.536 134.307C173.732 133.992 173.996 133.746 174.325 133.568C174.655 133.39 175.018 133.258 175.416 133.17C175.818 133.08 176.221 133.008 176.626 132.955C177.157 132.886 177.587 132.835 177.916 132.801C178.25 132.763 178.492 132.701 178.643 132.614C178.799 132.527 178.876 132.375 178.876 132.159V132.114C178.876 131.553 178.723 131.117 178.416 130.807C178.113 130.496 177.653 130.341 177.036 130.341C176.395 130.341 175.893 130.481 175.53 130.761C175.166 131.042 174.911 131.341 174.763 131.659L173.49 131.205C173.717 130.674 174.02 130.261 174.399 129.966C174.782 129.667 175.198 129.458 175.649 129.341C176.104 129.22 176.551 129.159 176.99 129.159C177.27 129.159 177.592 129.193 177.956 129.261C178.323 129.326 178.678 129.46 179.018 129.665C179.363 129.869 179.649 130.178 179.876 130.591C180.104 131.004 180.217 131.557 180.217 132.25V138H178.876V136.818H178.808C178.717 137.008 178.566 137.21 178.354 137.426C178.142 137.642 177.859 137.826 177.507 137.977C177.155 138.129 176.725 138.205 176.217 138.205ZM176.422 137C176.952 137 177.399 136.896 177.763 136.688C178.13 136.479 178.407 136.21 178.592 135.881C178.782 135.551 178.876 135.205 178.876 134.841V133.614C178.82 133.682 178.695 133.744 178.501 133.801C178.312 133.854 178.092 133.902 177.842 133.943C177.596 133.981 177.356 134.015 177.121 134.045C176.89 134.072 176.702 134.095 176.558 134.114C176.21 134.159 175.884 134.233 175.581 134.335C175.282 134.434 175.039 134.583 174.854 134.784C174.672 134.981 174.581 135.25 174.581 135.591C174.581 136.057 174.753 136.409 175.098 136.648C175.446 136.883 175.888 137 176.422 137ZM187.347 138V126.364H188.688V130.659H188.801C188.9 130.508 189.036 130.314 189.21 130.08C189.388 129.841 189.642 129.629 189.972 129.443C190.305 129.254 190.756 129.159 191.324 129.159C192.059 129.159 192.706 129.343 193.267 129.71C193.828 130.078 194.265 130.598 194.58 131.273C194.894 131.947 195.051 132.742 195.051 133.659C195.051 134.583 194.894 135.384 194.58 136.062C194.265 136.737 193.83 137.259 193.273 137.631C192.716 137.998 192.074 138.182 191.347 138.182C190.786 138.182 190.337 138.089 190 137.903C189.663 137.714 189.403 137.5 189.222 137.261C189.04 137.019 188.9 136.818 188.801 136.659H188.642V138H187.347ZM188.665 133.636C188.665 134.295 188.761 134.877 188.955 135.381C189.148 135.881 189.43 136.273 189.801 136.557C190.172 136.837 190.627 136.977 191.165 136.977C191.725 136.977 192.193 136.83 192.568 136.534C192.947 136.235 193.231 135.833 193.42 135.33C193.614 134.822 193.71 134.258 193.71 133.636C193.71 133.023 193.616 132.47 193.426 131.977C193.241 131.481 192.958 131.089 192.58 130.801C192.205 130.509 191.733 130.364 191.165 130.364C190.619 130.364 190.161 130.502 189.79 130.778C189.419 131.051 189.138 131.434 188.949 131.926C188.759 132.415 188.665 132.985 188.665 133.636ZM202.602 134.432V129.273H203.943V138H202.602V136.523H202.511C202.307 136.966 201.989 137.343 201.557 137.653C201.125 137.96 200.58 138.114 199.92 138.114C199.375 138.114 198.89 137.994 198.466 137.756C198.042 137.513 197.708 137.15 197.466 136.665C197.223 136.176 197.102 135.561 197.102 134.818V129.273H198.443V134.727C198.443 135.364 198.621 135.871 198.977 136.25C199.337 136.629 199.795 136.818 200.352 136.818C200.686 136.818 201.025 136.733 201.369 136.562C201.718 136.392 202.009 136.131 202.244 135.778C202.483 135.426 202.602 134.977 202.602 134.432ZM209.922 141.455C209.274 141.455 208.717 141.371 208.251 141.205C207.786 141.042 207.397 140.826 207.087 140.557C206.78 140.292 206.536 140.008 206.354 139.705L207.422 138.955C207.543 139.114 207.696 139.295 207.882 139.5C208.068 139.708 208.321 139.888 208.643 140.04C208.969 140.195 209.395 140.273 209.922 140.273C210.626 140.273 211.208 140.102 211.666 139.761C212.125 139.42 212.354 138.886 212.354 138.159V136.386H212.24C212.142 136.545 212.001 136.742 211.82 136.977C211.642 137.208 211.384 137.415 211.047 137.597C210.714 137.775 210.263 137.864 209.695 137.864C208.99 137.864 208.357 137.697 207.797 137.364C207.24 137.03 206.799 136.545 206.473 135.909C206.151 135.273 205.99 134.5 205.99 133.591C205.99 132.697 206.147 131.919 206.462 131.256C206.776 130.589 207.214 130.074 207.774 129.71C208.335 129.343 208.982 129.159 209.717 129.159C210.286 129.159 210.736 129.254 211.07 129.443C211.407 129.629 211.664 129.841 211.842 130.08C212.024 130.314 212.164 130.508 212.263 130.659H212.399V129.273H213.695V138.25C213.695 139 213.524 139.61 213.183 140.08C212.846 140.553 212.392 140.9 211.82 141.119C211.251 141.343 210.619 141.455 209.922 141.455ZM209.876 136.659C210.414 136.659 210.869 136.536 211.24 136.29C211.611 136.044 211.893 135.689 212.087 135.227C212.28 134.765 212.376 134.212 212.376 133.568C212.376 132.939 212.282 132.384 212.092 131.903C211.903 131.422 211.623 131.045 211.251 130.773C210.88 130.5 210.422 130.364 209.876 130.364C209.308 130.364 208.835 130.508 208.456 130.795C208.081 131.083 207.799 131.47 207.609 131.955C207.424 132.439 207.331 132.977 207.331 133.568C207.331 134.174 207.426 134.71 207.615 135.176C207.808 135.638 208.092 136.002 208.467 136.267C208.846 136.528 209.316 136.659 209.876 136.659ZM217.126 138.091C216.846 138.091 216.606 137.991 216.405 137.79C216.204 137.589 216.104 137.348 216.104 137.068C216.104 136.788 216.204 136.547 216.405 136.347C216.606 136.146 216.846 136.045 217.126 136.045C217.407 136.045 217.647 136.146 217.848 136.347C218.049 136.547 218.149 136.788 218.149 137.068C218.149 137.254 218.102 137.424 218.007 137.58C217.916 137.735 217.793 137.86 217.638 137.955C217.486 138.045 217.316 138.091 217.126 138.091Z" fill="#383838"/>
</g>
<defs>
<filter id="filter0_f_508_1619" x="6.70001" y="-336.3" width="885.6" height="885.6" filterUnits="userSpaceOnUse" color-interpolation-filters="sRGB">
<feFlood flood-opacity="0" result="BackgroundImageFix"/>
<feBlend mode="normal" in="SourceGraphic" in2="BackgroundImageFix" result="shape"/>
<feGaussianBlur stdDeviation="168.15" result="effect1_foregroundBlur_508_1619"/>
</filter>
<clipPath id="clip0_508_1619">
<rect width="556" height="205" rx="12" fill="white"/>
</clipPath>
</defs>
</svg>
